<svg id="Layer_1" data-name="Layer 1" xmlns="http://www.w3.org/2000/svg" viewBox="0 0 600 600"><defs><style>.cls-1{opacity:0;}.cls-2{fill:none;}.cls-3{opacity:0.05;}.cls-4{fill:#999;}.cls-5{opacity:0.1;}.cls-6{opacity:0.14;}.cls-7{opacity:0.19;}.cls-8{opacity:0.24;}.cls-9{opacity:0.29;}.cls-10{opacity:0.33;}.cls-11{opacity:0.38;}.cls-12{opacity:0.43;}.cls-13{opacity:0.48;}.cls-14{opacity:0.52;}.cls-15{opacity:0.57;}.cls-16{opacity:0.62;}.cls-17{opacity:0.67;}.cls-18{opacity:0.71;}.cls-19{opacity:0.76;}.cls-20{opacity:0.81;}.cls-21{opacity:0.86;}.cls-22{opacity:0.9;}.cls-23{opacity:0.95;}.cls-24{fill:#8cd8bc;}.cls-25,.cls-26{font-size:56.24px;font-family:Montserrat-ExtraBold, Montserrat;font-weight:800;}.cls-25,.cls-26,.cls-28{fill:#283673;}.cls-26{letter-spacing:-0.03em;}.cls-27{letter-spacing:0em;}</style></defs><g class="cls-1"><polygon class="cls-2" points="116.9 445.27 101.72 445.27 101.72 430.48 90.58 430.48 90.58 469.85 101.72 469.85 101.72 454.49 116.9 454.49 116.9 469.85 128.04 469.85 128.04 430.48 116.9 430.48 116.9 445.27"/><polygon class="cls-2" points="146.94 454.04 164.43 454.04 164.43 445.72 146.94 445.72 146.94 439.08 166.79 439.08 166.79 430.48 135.91 430.48 135.91 469.85 167.52 469.85 167.52 461.24 146.94 461.24 146.94 454.04"/><polygon class="cls-2" points="184.84 430.48 173.71 430.48 173.71 469.85 203.63 469.85 203.63 461.02 184.84 461.02 184.84 430.48"/><path class="cls-2" d="M230.54,449.26a7.62,7.62,0,0,1-5.2,1.52h-6.19V439.25h6.19a7.67,7.67,0,0,1,5.2,1.52,5.42,5.42,0,0,1,1.72,4.27A5.36,5.36,0,0,1,230.54,449.26Zm4.78-17a22.75,22.75,0,0,0-9.31-1.74H208v39.37h11.13V459.56H226a22.41,22.41,0,0,0,9.31-1.78A13.26,13.26,0,0,0,243.5,445a14.06,14.06,0,0,0-2.13-7.79A13.63,13.63,0,0,0,235.32,432.22Z"/><polygon class="cls-2" points="262.12 439.31 274.21 439.31 274.21 469.85 285.35 469.85 285.35 439.31 297.38 439.31 297.38 430.48 262.12 430.48 262.12 439.31"/><polygon class="cls-2" points="327.87 445.27 312.68 445.27 312.68 430.48 301.55 430.48 301.55 469.85 312.68 469.85 312.68 454.49 327.87 454.49 327.87 469.85 339 469.85 339 430.48 327.87 430.48 327.87 445.27"/><polygon class="cls-2" points="357.9 454.04 375.39 454.04 375.39 445.72 357.9 445.72 357.9 439.08 377.75 439.08 377.75 430.48 346.88 430.48 346.88 469.85 378.49 469.85 378.49 461.24 357.9 461.24 357.9 454.04"/><polygon class="cls-2" points="427.58 451.46 410.2 430.48 401.04 430.48 401.04 469.85 411.95 469.85 411.95 448.87 429.33 469.85 438.5 469.85 438.5 430.48 427.58 430.48 427.58 451.46"/><path class="cls-2" d="M477.25,431.32v-.25l.17.25Zm39.79-.84H505l-7.74,11.38-7.9-11.38h-43v39.37h42.55l8-12.18,8.16,12.18h12.82l-14.6-20.35,13-18v7.82h12.1v30.54h11.13V439.31h12v-8.83Z"/><circle class="cls-2" cx="373.86" cy="185.41" r="29.13"/><path class="cls-2" d="M406,427.12h0a15.06,15.06,0,0,0,13.27-16.67l-8.91-78.67,14.81-7.12a2.8,2.8,0,0,0,1.31-3.74l-16.66-34.7a13,13,0,0,0,9.5-5.89l13.32-20.65a14.65,14.65,0,0,0-5.06-20l-21.66-11.13a13.2,13.2,0,0,0-4-1.29,9.8,9.8,0,0,0-6.72-2.67H368.84a89.51,89.51,0,0,1-28.25-4.42l-28.18-14.48a15.06,15.06,0,0,0-20.28,6.51h0a15.06,15.06,0,0,0,6.51,20.29l48.11,24.71v17.1l-15.58,53.32a2.81,2.81,0,0,0,1.91,3.48l13.67,4v77.07a15.07,15.07,0,0,0,30.13,0V339.07h3.95l8.47,74.77A15.08,15.08,0,0,0,406,427.12Z"/><circle class="cls-2" cx="250.97" cy="161.95" r="31.93"/><path class="cls-2" d="M286.85,286.27a16.35,16.35,0,0,0,9.1-.6,16.51,16.51,0,0,0,9.91-21.15l-18.37-50.77a16.54,16.54,0,0,0-15-10.88,16.32,16.32,0,0,0-4.56-.65H234.71a16.48,16.48,0,0,0-5,.75,16.52,16.52,0,0,0-14.13,12.34L202.28,268a16.52,16.52,0,0,0,11.95,20.07h0a16.49,16.49,0,0,0,7,.23V410.7a16.52,16.52,0,0,0,33,0V330.42h4.34l9.29,82a16.52,16.52,0,0,0,32.82-3.72Z"/></g><g class="cls-3"><polygon class="cls-4" points="116.05 445.27 100.86 445.27 100.86 430.48 89.73 430.48 89.73 469.85 100.86 469.85 100.86 454.49 116.05 454.49 116.05 469.85 127.18 469.85 127.18 430.48 116.05 430.48 116.05 445.27"/><polygon class="cls-4" points="146.08 454.04 163.57 454.04 163.57 445.72 146.08 445.72 146.08 439.08 165.94 439.08 165.94 430.48 135.06 430.48 135.06 469.85 166.67 469.85 166.67 461.24 146.08 461.24 146.08 454.04"/><polygon class="cls-4" points="183.99 430.48 172.85 430.48 172.85 469.85 202.77 469.85 202.77 461.02 183.99 461.02 183.99 430.48"/><path class="cls-4" d="M229.68,449.26c-1.14,1-2.87,1.52-5.2,1.52H218.3V439.25h6.18a7.65,7.65,0,0,1,5.2,1.52A5.39,5.39,0,0,1,231.4,445,5.32,5.32,0,0,1,229.68,449.26Zm4.79-17a22.78,22.78,0,0,0-9.31-1.74h-18v39.37H218.3V459.56h6.86a22.44,22.44,0,0,0,9.31-1.78,13.86,13.86,0,0,0,6-5,13.69,13.69,0,0,0,2.14-7.71,14,14,0,0,0-2.14-7.79A13.6,13.6,0,0,0,234.47,432.22Z"/><polygon class="cls-4" points="261.26 439.31 273.36 439.31 273.36 469.85 284.49 469.85 284.49 439.31 296.53 439.31 296.53 430.48 261.26 430.48 261.26 439.31"/><polygon class="cls-4" points="327.01 445.27 311.82 445.27 311.82 430.48 300.69 430.48 300.69 469.85 311.82 469.85 311.82 454.49 327.01 454.49 327.01 469.85 338.15 469.85 338.15 430.48 327.01 430.48 327.01 445.27"/><polygon class="cls-4" points="357.04 454.04 374.54 454.04 374.54 445.72 357.04 445.72 357.04 439.08 376.9 439.08 376.9 430.48 346.02 430.48 346.02 469.85 377.63 469.85 377.63 461.24 357.04 461.24 357.04 454.04"/><polygon class="cls-4" points="426.73 451.46 409.35 430.48 400.18 430.48 400.18 469.85 411.09 469.85 411.09 448.87 428.47 469.85 437.64 469.85 437.64 430.48 426.73 430.48 426.73 451.46"/><path class="cls-4" d="M476.39,431.32v-.25l.18.25Zm39.8-.84h-12l-7.74,11.38-7.89-11.38h-43v39.37h42.56l8-12.18,8.16,12.18h12.83L502.48,449.5l13-18v7.82h12.09v30.54h11.13V439.31h12v-8.83Z"/><circle class="cls-4" cx="373.01" cy="185.41" r="29.13"/><path class="cls-4" d="M405.11,427.12h0a15.06,15.06,0,0,0,13.27-16.67l-8.91-78.67,14.81-7.12a2.8,2.8,0,0,0,1.32-3.74l-16.67-34.7a13,13,0,0,0,9.51-5.89l13.31-20.65a14.65,14.65,0,0,0-5.06-20L405,228.54a13.12,13.12,0,0,0-4-1.29,9.8,9.8,0,0,0-6.72-2.67H368a89.56,89.56,0,0,1-28.25-4.42l-28.18-14.48a15.06,15.06,0,0,0-20.28,6.51h0a15.07,15.07,0,0,0,6.51,20.29l48.11,24.71v17.1l-15.58,53.32a2.81,2.81,0,0,0,1.91,3.48l13.67,4v77.07a15.07,15.07,0,0,0,30.13,0V339.07h4l8.48,74.77A15.06,15.06,0,0,0,405.11,427.12Z"/><circle class="cls-4" cx="250.11" cy="161.95" r="31.93"/><path class="cls-4" d="M286,286.27a16.49,16.49,0,0,0,19-21.75l-18.37-50.77a16.51,16.51,0,0,0-15-10.88,16.39,16.39,0,0,0-4.57-.65H233.85a16.53,16.53,0,0,0-4.95.75,16.53,16.53,0,0,0-14.13,12.34L201.42,268a16.51,16.51,0,0,0,12,20.07h0a16.44,16.44,0,0,0,7,.23V410.7a16.52,16.52,0,0,0,33,0V330.42h4.33l9.29,82a16.52,16.52,0,0,0,32.82-3.72Z"/></g><g class="cls-5"><polygon class="cls-4" points="115.19 445.27 100 445.27 100 430.48 88.87 430.48 88.87 469.85 100 469.85 100 454.49 115.19 454.49 115.19 469.85 126.33 469.85 126.33 430.48 115.19 430.48 115.19 445.27"/><polygon class="cls-4" points="145.22 454.04 162.72 454.04 162.72 445.72 145.22 445.72 145.22 439.08 165.08 439.08 165.08 430.48 134.2 430.48 134.2 469.85 165.81 469.85 165.81 461.24 145.22 461.24 145.22 454.04"/><polygon class="cls-4" points="183.13 430.48 172 430.48 172 469.85 201.92 469.85 201.92 461.02 183.13 461.02 183.13 430.48"/><path class="cls-4" d="M228.83,449.26a7.65,7.65,0,0,1-5.21,1.52h-6.18V439.25h6.18a7.7,7.7,0,0,1,5.21,1.52,5.42,5.42,0,0,1,1.71,4.27A5.35,5.35,0,0,1,228.83,449.26Zm4.78-17a22.78,22.78,0,0,0-9.31-1.74h-18v39.37h11.14V459.56h6.86a22.44,22.44,0,0,0,9.31-1.78,13.86,13.86,0,0,0,6-5,13.69,13.69,0,0,0,2.14-7.71,14,14,0,0,0-2.14-7.79A13.6,13.6,0,0,0,233.61,432.22Z"/><polygon class="cls-4" points="260.41 439.31 272.5 439.31 272.5 469.85 283.63 469.85 283.63 439.31 295.67 439.31 295.67 430.48 260.41 430.48 260.41 439.31"/><polygon class="cls-4" points="326.15 445.27 310.97 445.27 310.97 430.48 299.83 430.48 299.83 469.85 310.97 469.85 310.97 454.49 326.15 454.49 326.15 469.85 337.29 469.85 337.29 430.48 326.15 430.48 326.15 445.27"/><polygon class="cls-4" points="356.19 454.04 373.68 454.04 373.68 445.72 356.19 445.72 356.19 439.08 376.04 439.08 376.04 430.48 345.16 430.48 345.16 469.85 376.77 469.85 376.77 461.24 356.19 461.24 356.19 454.04"/><polygon class="cls-4" points="425.87 451.46 408.49 430.48 399.32 430.48 399.32 469.85 410.23 469.85 410.23 448.87 427.61 469.85 436.78 469.85 436.78 430.48 425.87 430.48 425.87 451.46"/><path class="cls-4" d="M475.53,431.32v-.25l.18.25Zm39.8-.84h-12l-7.74,11.38-7.89-11.38h-43v39.37h42.56l8-12.18,8.17,12.18h12.82l-14.6-20.35,13-18v7.82h12.09v30.54h11.14V439.31h12v-8.83Z"/><circle class="cls-4" cx="372.15" cy="185.41" r="29.13"/><path class="cls-4" d="M404.25,427.12h0a15.08,15.08,0,0,0,13.27-16.67l-8.92-78.67,14.81-7.12a2.8,2.8,0,0,0,1.32-3.74l-16.67-34.7a13,13,0,0,0,9.51-5.89l13.31-20.65a14.66,14.66,0,0,0-5.05-20l-21.67-11.13a13,13,0,0,0-4-1.29,9.76,9.76,0,0,0-6.72-2.67H367.13a89.51,89.51,0,0,1-28.25-4.42L310.7,205.68a15.07,15.07,0,0,0-20.29,6.51h0a15.08,15.08,0,0,0,6.52,20.29L345,257.19v17.1l-15.57,53.32a2.8,2.8,0,0,0,1.91,3.48l13.66,4v77.07a15.07,15.07,0,0,0,30.13,0V339.07h4l8.47,74.77A15.07,15.07,0,0,0,404.25,427.12Z"/><circle class="cls-4" cx="249.26" cy="161.95" r="31.93"/><path class="cls-4" d="M285.14,286.27a16.31,16.31,0,0,0,9.09-.6,16.52,16.52,0,0,0,9.92-21.15l-18.38-50.77a16.51,16.51,0,0,0-15-10.88,16.37,16.37,0,0,0-4.56-.65H233a16.57,16.57,0,0,0-5,.75,16.51,16.51,0,0,0-14.12,12.34L200.56,268a16.52,16.52,0,0,0,12,20.07h0a16.45,16.45,0,0,0,7,.23V410.7a16.52,16.52,0,0,0,33,0V330.42h4.33l9.29,82A16.52,16.52,0,0,0,299,408.68Z"/></g><g class="cls-6"><polygon class="cls-4" points="114.33 445.27 99.15 445.27 99.15 430.48 88.01 430.48 88.01 469.85 99.15 469.85 99.15 454.49 114.33 454.49 114.33 469.85 125.47 469.85 125.47 430.48 114.33 430.48 114.33 445.27"/><polygon class="cls-4" points="144.37 454.04 161.86 454.04 161.86 445.72 144.37 445.72 144.37 439.08 164.22 439.08 164.22 430.48 133.34 430.48 133.34 469.85 164.95 469.85 164.95 461.24 144.37 461.24 144.37 454.04"/><polygon class="cls-4" points="182.27 430.48 171.14 430.48 171.14 469.85 201.06 469.85 201.06 461.02 182.27 461.02 182.27 430.48"/><path class="cls-4" d="M228,449.26a7.62,7.62,0,0,1-5.2,1.52h-6.19V439.25h6.19a7.67,7.67,0,0,1,5.2,1.52,5.42,5.42,0,0,1,1.72,4.27A5.36,5.36,0,0,1,228,449.26Zm4.78-17a22.78,22.78,0,0,0-9.31-1.74h-18v39.37h11.13V459.56h6.86a22.44,22.44,0,0,0,9.31-1.78A13.26,13.26,0,0,0,240.93,445a14.06,14.06,0,0,0-2.13-7.79A13.63,13.63,0,0,0,232.75,432.22Z"/><polygon class="cls-4" points="259.55 439.31 271.64 439.31 271.64 469.85 282.78 469.85 282.78 439.31 294.81 439.31 294.81 430.48 259.55 430.48 259.55 439.31"/><polygon class="cls-4" points="325.3 445.27 310.11 445.27 310.11 430.48 298.97 430.48 298.97 469.85 310.11 469.85 310.11 454.49 325.3 454.49 325.3 469.85 336.43 469.85 336.43 430.48 325.3 430.48 325.3 445.27"/><polygon class="cls-4" points="355.33 454.04 372.82 454.04 372.82 445.72 355.33 445.72 355.33 439.08 375.18 439.08 375.18 430.48 344.31 430.48 344.31 469.85 375.91 469.85 375.91 461.24 355.33 461.24 355.33 454.04"/><polygon class="cls-4" points="425.01 451.46 407.63 430.48 398.47 430.48 398.47 469.85 409.38 469.85 409.38 448.87 426.76 469.85 435.92 469.85 435.92 430.48 425.01 430.48 425.01 451.46"/><path class="cls-4" d="M474.68,431.32v-.25l.17.25Zm39.79-.84h-12l-7.74,11.38-7.9-11.38h-43v39.37h42.55l8-12.18,8.16,12.18h12.82l-14.6-20.35,13-18v7.82h12.09v30.54H537V439.31h12v-8.83Z"/><circle class="cls-4" cx="371.29" cy="185.41" r="29.13"/><path class="cls-4" d="M403.4,427.12h0a15.06,15.06,0,0,0,13.27-16.67l-8.91-78.67,14.81-7.12a2.81,2.81,0,0,0,1.31-3.74l-16.66-34.7a13,13,0,0,0,9.5-5.89L430,259.68a14.65,14.65,0,0,0-5.06-20l-21.66-11.13a13.2,13.2,0,0,0-4-1.29,9.8,9.8,0,0,0-6.73-2.67H366.27A89.51,89.51,0,0,1,338,220.16l-28.18-14.48a15.07,15.07,0,0,0-20.29,6.51h0a15.08,15.08,0,0,0,6.52,20.29l48.1,24.71v17.1L328.6,327.61a2.8,2.8,0,0,0,1.91,3.48l13.66,4v77.07a15.07,15.07,0,0,0,30.13,0V339.07h4l8.47,74.77A15.08,15.08,0,0,0,403.4,427.12Z"/><circle class="cls-4" cx="248.4" cy="161.95" r="31.93"/><path class="cls-4" d="M284.28,286.27a16.35,16.35,0,0,0,9.1-.6,16.52,16.52,0,0,0,9.91-21.15l-18.38-50.77a16.51,16.51,0,0,0-15-10.88,16.37,16.37,0,0,0-4.56-.65H232.14a16.48,16.48,0,0,0-4.95.75,16.52,16.52,0,0,0-14.13,12.34L199.71,268a16.52,16.52,0,0,0,11.95,20.07h0a16.49,16.49,0,0,0,7,.23V410.7a16.52,16.52,0,0,0,33,0V330.42H256l9.29,82a16.52,16.52,0,0,0,32.82-3.72Z"/></g><g class="cls-7"><polygon class="cls-4" points="113.48 445.27 98.29 445.27 98.29 430.48 87.15 430.48 87.15 469.85 98.29 469.85 98.29 454.49 113.48 454.49 113.48 469.85 124.61 469.85 124.61 430.48 113.48 430.48 113.48 445.27"/><polygon class="cls-4" points="143.51 454.04 161 454.04 161 445.72 143.51 445.72 143.51 439.08 163.36 439.08 163.36 430.48 132.49 430.48 132.49 469.85 164.09 469.85 164.09 461.24 143.51 461.24 143.51 454.04"/><polygon class="cls-4" points="181.42 430.48 170.28 430.48 170.28 469.85 200.2 469.85 200.2 461.02 181.42 461.02 181.42 430.48"/><path class="cls-4" d="M227.11,449.26a7.62,7.62,0,0,1-5.2,1.52h-6.19V439.25h6.19a7.67,7.67,0,0,1,5.2,1.52,5.39,5.39,0,0,1,1.72,4.27A5.32,5.32,0,0,1,227.11,449.26Zm4.78-17a22.73,22.73,0,0,0-9.3-1.74h-18v39.37h11.13V459.56h6.87a22.39,22.39,0,0,0,9.3-1.78A13.29,13.29,0,0,0,240.08,445a14.06,14.06,0,0,0-2.14-7.79A13.63,13.63,0,0,0,231.89,432.22Z"/><polygon class="cls-4" points="258.69 439.31 270.78 439.31 270.78 469.85 281.92 469.85 281.92 439.31 293.95 439.31 293.95 430.48 258.69 430.48 258.69 439.31"/><polygon class="cls-4" points="324.44 445.27 309.25 445.27 309.25 430.48 298.12 430.48 298.12 469.85 309.25 469.85 309.25 454.49 324.44 454.49 324.44 469.85 335.57 469.85 335.57 430.48 324.44 430.48 324.44 445.27"/><polygon class="cls-4" points="354.47 454.04 371.96 454.04 371.96 445.72 354.47 445.72 354.47 439.08 374.33 439.08 374.33 430.48 343.45 430.48 343.45 469.85 375.06 469.85 375.06 461.24 354.47 461.24 354.47 454.04"/><polygon class="cls-4" points="424.15 451.46 406.78 430.48 397.61 430.48 397.61 469.85 408.52 469.85 408.52 448.87 425.9 469.85 435.07 469.85 435.07 430.48 424.15 430.48 424.15 451.46"/><path class="cls-4" d="M473.82,431.32v-.25l.18.25Zm39.8-.84h-12l-7.74,11.38-7.9-11.38h-43v39.37H485.5l8-12.18,8.16,12.18h12.83L499.91,449.5l13-18v7.82H525v30.54h11.13V439.31h12v-8.83Z"/><circle class="cls-4" cx="370.43" cy="185.41" r="29.13"/><path class="cls-4" d="M402.54,427.12h0a15.06,15.06,0,0,0,13.27-16.67l-8.91-78.67,14.81-7.12a2.79,2.79,0,0,0,1.31-3.74l-16.66-34.7a13,13,0,0,0,9.5-5.89l13.32-20.65a14.65,14.65,0,0,0-5.06-20l-21.66-11.13a13.2,13.2,0,0,0-4-1.29,9.8,9.8,0,0,0-6.72-2.67H365.41a89.56,89.56,0,0,1-28.25-4.42L309,205.68a15.06,15.06,0,0,0-20.28,6.51h0a15.07,15.07,0,0,0,6.51,20.29l48.11,24.71v17.1l-15.58,53.32a2.81,2.81,0,0,0,1.91,3.48l13.67,4v77.07a15.07,15.07,0,0,0,30.13,0V339.07h3.95l8.48,74.77A15.06,15.06,0,0,0,402.54,427.12Z"/><circle class="cls-4" cx="247.54" cy="161.95" r="31.93"/><path class="cls-4" d="M283.42,286.27a16.35,16.35,0,0,0,9.1-.6,16.51,16.51,0,0,0,9.91-21.15l-18.37-50.77a16.53,16.53,0,0,0-15-10.88,16.32,16.32,0,0,0-4.56-.65H231.28a16.53,16.53,0,0,0-4.95.75,16.52,16.52,0,0,0-14.13,12.34L198.85,268a16.52,16.52,0,0,0,12,20.07h0a16.49,16.49,0,0,0,7,.23V410.7a16.52,16.52,0,0,0,33,0V330.42h4.34l9.29,82a16.52,16.52,0,0,0,32.82-3.72Z"/></g><g class="cls-8"><polygon class="cls-4" points="112.62 445.27 97.43 445.27 97.43 430.48 86.3 430.48 86.3 469.85 97.43 469.85 97.43 454.49 112.62 454.49 112.62 469.85 123.75 469.85 123.75 430.48 112.62 430.48 112.62 445.27"/><polygon class="cls-4" points="142.65 454.04 160.14 454.04 160.14 445.72 142.65 445.72 142.65 439.08 162.51 439.08 162.51 430.48 131.63 430.48 131.63 469.85 163.24 469.85 163.24 461.24 142.65 461.24 142.65 454.04"/><polygon class="cls-4" points="180.56 430.48 169.42 430.48 169.42 469.85 199.34 469.85 199.34 461.02 180.56 461.02 180.56 430.48"/><path class="cls-4" d="M226.26,449.26a7.65,7.65,0,0,1-5.21,1.52h-6.18V439.25h6.18a7.7,7.7,0,0,1,5.21,1.52A5.42,5.42,0,0,1,228,445,5.35,5.35,0,0,1,226.26,449.26Zm4.78-17a22.78,22.78,0,0,0-9.31-1.74h-18v39.37h11.14V459.56h6.86a22.44,22.44,0,0,0,9.31-1.78,13.86,13.86,0,0,0,6-5,13.69,13.69,0,0,0,2.14-7.71,14,14,0,0,0-2.14-7.79A13.6,13.6,0,0,0,231,432.22Z"/><polygon class="cls-4" points="257.83 439.31 269.93 439.31 269.93 469.85 281.06 469.85 281.06 439.31 293.1 439.31 293.1 430.48 257.83 430.48 257.83 439.31"/><polygon class="cls-4" points="323.58 445.27 308.4 445.27 308.4 430.48 297.26 430.48 297.26 469.85 308.4 469.85 308.4 454.49 323.58 454.49 323.58 469.85 334.72 469.85 334.72 430.48 323.58 430.48 323.58 445.27"/><polygon class="cls-4" points="353.62 454.04 371.11 454.04 371.11 445.72 353.62 445.72 353.62 439.08 373.47 439.08 373.47 430.48 342.59 430.48 342.59 469.85 374.2 469.85 374.2 461.24 353.62 461.24 353.62 454.04"/><polygon class="cls-4" points="423.3 451.46 405.92 430.48 396.75 430.48 396.75 469.85 407.66 469.85 407.66 448.87 425.04 469.85 434.21 469.85 434.21 430.48 423.3 430.48 423.3 451.46"/><path class="cls-4" d="M473,431.32v-.25l.18.25Zm39.8-.84h-12L493,441.86l-7.89-11.38h-43v39.37h42.56l8-12.18,8.17,12.18h12.82l-14.6-20.35,13-18v7.82h12.09v30.54h11.14V439.31h12v-8.83Z"/><circle class="cls-4" cx="369.58" cy="185.41" r="29.13"/><path class="cls-4" d="M401.68,427.12h0A15.08,15.08,0,0,0,415,410.45L406,331.78l14.81-7.12a2.8,2.8,0,0,0,1.32-3.74l-16.67-34.7a13,13,0,0,0,9.51-5.89l13.31-20.65a14.65,14.65,0,0,0-5.06-20L401.6,228.54a13.12,13.12,0,0,0-4-1.29,9.8,9.8,0,0,0-6.72-2.67H364.56a89.51,89.51,0,0,1-28.25-4.42l-28.19-14.48a15.06,15.06,0,0,0-20.28,6.51h0a15.08,15.08,0,0,0,6.52,20.29l48.1,24.71v17.1l-15.57,53.32a2.79,2.79,0,0,0,1.9,3.48l13.67,4v77.07a15.07,15.07,0,0,0,30.13,0V339.07h4L385,413.84A15.07,15.07,0,0,0,401.68,427.12Z"/><circle class="cls-4" cx="246.68" cy="161.95" r="31.93"/><path class="cls-4" d="M282.56,286.27a16.49,16.49,0,0,0,19-21.75L283.2,213.75a16.51,16.51,0,0,0-15-10.88,16.37,16.37,0,0,0-4.56-.65H230.42a16.57,16.57,0,0,0-4.95.75,16.53,16.53,0,0,0-14.13,12.34L198,268a16.51,16.51,0,0,0,12,20.07h0a16.44,16.44,0,0,0,7,.23V410.7a16.52,16.52,0,0,0,33,0V330.42h4.33l9.29,82a16.52,16.52,0,0,0,32.83-3.72Z"/></g><g class="cls-9"><polygon class="cls-4" points="111.76 445.27 96.58 445.27 96.58 430.48 85.44 430.48 85.44 469.85 96.58 469.85 96.58 454.49 111.76 454.49 111.76 469.85 122.9 469.85 122.9 430.48 111.76 430.48 111.76 445.27"/><polygon class="cls-4" points="141.8 454.04 159.29 454.04 159.29 445.72 141.8 445.72 141.8 439.08 161.65 439.08 161.65 430.48 130.77 430.48 130.77 469.85 162.38 469.85 162.38 461.24 141.8 461.24 141.8 454.04"/><polygon class="cls-4" points="179.7 430.48 168.57 430.48 168.57 469.85 198.49 469.85 198.49 461.02 179.7 461.02 179.7 430.48"/><path class="cls-4" d="M225.4,449.26a7.63,7.63,0,0,1-5.2,1.52H214V439.25h6.19a7.69,7.69,0,0,1,5.2,1.52,5.42,5.42,0,0,1,1.71,4.27A5.35,5.35,0,0,1,225.4,449.26Zm4.78-17a22.78,22.78,0,0,0-9.31-1.74h-18v39.37H214V459.56h6.86a22.44,22.44,0,0,0,9.31-1.78,14,14,0,0,0,6-5,13.76,13.76,0,0,0,2.13-7.71,14.06,14.06,0,0,0-2.13-7.79A13.68,13.68,0,0,0,230.18,432.22Z"/><polygon class="cls-4" points="256.98 439.31 269.07 439.31 269.07 469.85 280.21 469.85 280.21 439.31 292.24 439.31 292.24 430.48 256.98 430.48 256.98 439.31"/><polygon class="cls-4" points="322.72 445.27 307.54 445.27 307.54 430.48 296.4 430.48 296.4 469.85 307.54 469.85 307.54 454.49 322.72 454.49 322.72 469.85 333.86 469.85 333.86 430.48 322.72 430.48 322.72 445.27"/><polygon class="cls-4" points="352.76 454.04 370.25 454.04 370.25 445.72 352.76 445.72 352.76 439.08 372.61 439.08 372.61 430.48 341.73 430.48 341.73 469.85 373.34 469.85 373.34 461.24 352.76 461.24 352.76 454.04"/><polygon class="cls-4" points="422.44 451.46 405.06 430.48 395.89 430.48 395.89 469.85 406.81 469.85 406.81 448.87 424.18 469.85 433.35 469.85 433.35 430.48 422.44 430.48 422.44 451.46"/><path class="cls-4" d="M472.1,431.32v-.25l.18.25Zm39.8-.84h-12l-7.74,11.38-7.9-11.38h-43v39.37h42.55l8-12.18L500,469.85H512.8L498.2,449.5l13-18v7.82h12.09v30.54H534.4V439.31h12v-8.83Z"/><circle class="cls-4" cx="368.72" cy="185.41" r="29.13"/><path class="cls-4" d="M400.83,427.12h0a15.07,15.07,0,0,0,13.27-16.67l-8.92-78.67L420,324.66a2.8,2.8,0,0,0,1.32-3.74l-16.66-34.7a13,13,0,0,0,9.5-5.89l13.31-20.65a14.63,14.63,0,0,0-5-20l-21.67-11.13a13,13,0,0,0-4-1.29,9.76,9.76,0,0,0-6.72-2.67H363.7a89.51,89.51,0,0,1-28.25-4.42l-28.18-14.48A15.07,15.07,0,0,0,287,212.19h0a15.08,15.08,0,0,0,6.52,20.29l48.1,24.71v17.1L326,327.61a2.8,2.8,0,0,0,1.91,3.48l13.66,4v77.07a15.07,15.07,0,0,0,30.13,0V339.07h4l8.47,74.77A15.08,15.08,0,0,0,400.83,427.12Z"/><circle class="cls-4" cx="245.83" cy="161.95" r="31.93"/><path class="cls-4" d="M281.71,286.27a16.35,16.35,0,0,0,9.1-.6,16.52,16.52,0,0,0,9.91-21.15l-18.38-50.77a16.51,16.51,0,0,0-15-10.88,16.37,16.37,0,0,0-4.56-.65H229.57a16.48,16.48,0,0,0-4.95.75,16.52,16.52,0,0,0-14.13,12.34L197.13,268a16.52,16.52,0,0,0,12,20.07h0a16.49,16.49,0,0,0,7,.23V410.7a16.52,16.52,0,0,0,33,0V330.42h4.34l9.29,82a16.52,16.52,0,0,0,32.82-3.72Z"/></g><g class="cls-10"><polygon class="cls-4" points="110.9 445.27 95.72 445.27 95.72 430.48 84.58 430.48 84.58 469.85 95.72 469.85 95.72 454.49 110.9 454.49 110.9 469.85 122.04 469.85 122.04 430.48 110.9 430.48 110.9 445.27"/><polygon class="cls-4" points="140.94 454.04 158.43 454.04 158.43 445.72 140.94 445.72 140.94 439.08 160.79 439.08 160.79 430.48 129.91 430.48 129.91 469.85 161.52 469.85 161.52 461.24 140.94 461.24 140.94 454.04"/><polygon class="cls-4" points="178.84 430.48 167.71 430.48 167.71 469.85 197.63 469.85 197.63 461.02 178.84 461.02 178.84 430.48"/><path class="cls-4" d="M224.54,449.26a7.62,7.62,0,0,1-5.2,1.52h-6.19V439.25h6.19a7.67,7.67,0,0,1,5.2,1.52,5.42,5.42,0,0,1,1.72,4.27A5.36,5.36,0,0,1,224.54,449.26Zm4.78-17a22.75,22.75,0,0,0-9.31-1.74H202v39.37h11.13V459.56H220a22.41,22.41,0,0,0,9.31-1.78A13.26,13.26,0,0,0,237.5,445a14.06,14.06,0,0,0-2.13-7.79A13.63,13.63,0,0,0,229.32,432.22Z"/><polygon class="cls-4" points="256.12 439.31 268.21 439.31 268.21 469.85 279.35 469.85 279.35 439.31 291.38 439.31 291.38 430.48 256.12 430.48 256.12 439.31"/><polygon class="cls-4" points="321.87 445.27 306.68 445.27 306.68 430.48 295.55 430.48 295.55 469.85 306.68 469.85 306.68 454.49 321.87 454.49 321.87 469.85 333 469.85 333 430.48 321.87 430.48 321.87 445.27"/><polygon class="cls-4" points="351.9 454.04 369.39 454.04 369.39 445.72 351.9 445.72 351.9 439.08 371.75 439.08 371.75 430.48 340.88 430.48 340.88 469.85 372.49 469.85 372.49 461.24 351.9 461.24 351.9 454.04"/><polygon class="cls-4" points="421.58 451.46 404.2 430.48 395.04 430.48 395.04 469.85 405.95 469.85 405.95 448.87 423.33 469.85 432.5 469.85 432.5 430.48 421.58 430.48 421.58 451.46"/><path class="cls-4" d="M471.25,431.32v-.25l.17.25Zm39.79-.84H499l-7.74,11.38-7.9-11.38h-43v39.37h42.55l8-12.18,8.16,12.18h12.82l-14.6-20.35,13-18v7.82h12.1v30.54h11.13V439.31h12v-8.83Z"/><circle class="cls-4" cx="367.86" cy="185.41" r="29.13"/><path class="cls-4" d="M400,427.12h0a15.06,15.06,0,0,0,13.27-16.67l-8.91-78.67,14.81-7.12a2.8,2.8,0,0,0,1.31-3.74l-16.66-34.7a13,13,0,0,0,9.5-5.89l13.32-20.65a14.65,14.65,0,0,0-5.06-20l-21.66-11.13a13.2,13.2,0,0,0-4-1.29,9.8,9.8,0,0,0-6.72-2.67H362.84a89.51,89.51,0,0,1-28.25-4.42l-28.18-14.48a15.06,15.06,0,0,0-20.28,6.51h0a15.06,15.06,0,0,0,6.51,20.29l48.11,24.71v17.1l-15.58,53.32a2.81,2.81,0,0,0,1.91,3.48l13.67,4v77.07a15.07,15.07,0,0,0,30.13,0V339.07h3.95l8.47,74.77A15.08,15.08,0,0,0,400,427.12Z"/><circle class="cls-4" cx="244.97" cy="161.95" r="31.93"/><path class="cls-4" d="M280.85,286.27a16.35,16.35,0,0,0,9.1-.6,16.51,16.51,0,0,0,9.91-21.15l-18.37-50.77a16.54,16.54,0,0,0-15-10.88,16.32,16.32,0,0,0-4.56-.65H228.71a16.48,16.48,0,0,0-5,.75,16.52,16.52,0,0,0-14.13,12.34L196.28,268a16.52,16.52,0,0,0,11.95,20.07h0a16.49,16.49,0,0,0,7,.23V410.7a16.52,16.52,0,0,0,33,0V330.42h4.34l9.29,82a16.52,16.52,0,0,0,32.82-3.72Z"/></g><g class="cls-11"><polygon class="cls-4" points="110.05 445.27 94.86 445.27 94.86 430.48 83.73 430.48 83.73 469.85 94.86 469.85 94.86 454.49 110.05 454.49 110.05 469.85 121.18 469.85 121.18 430.48 110.05 430.48 110.05 445.27"/><polygon class="cls-4" points="140.08 454.04 157.57 454.04 157.57 445.72 140.08 445.72 140.08 439.08 159.94 439.08 159.94 430.48 129.06 430.48 129.06 469.85 160.67 469.85 160.67 461.24 140.08 461.24 140.08 454.04"/><polygon class="cls-4" points="177.99 430.48 166.85 430.48 166.85 469.85 196.77 469.85 196.77 461.02 177.99 461.02 177.99 430.48"/><path class="cls-4" d="M223.68,449.26c-1.14,1-2.87,1.52-5.2,1.52H212.3V439.25h6.18a7.65,7.65,0,0,1,5.2,1.52A5.39,5.39,0,0,1,225.4,445,5.32,5.32,0,0,1,223.68,449.26Zm4.79-17a22.78,22.78,0,0,0-9.31-1.74h-18v39.37H212.3V459.56h6.86a22.44,22.44,0,0,0,9.31-1.78,13.86,13.86,0,0,0,6-5,13.69,13.69,0,0,0,2.14-7.71,14,14,0,0,0-2.14-7.79A13.6,13.6,0,0,0,228.47,432.22Z"/><polygon class="cls-4" points="255.26 439.31 267.36 439.31 267.36 469.85 278.49 469.85 278.49 439.31 290.53 439.31 290.53 430.48 255.26 430.48 255.26 439.31"/><polygon class="cls-4" points="321.01 445.27 305.82 445.27 305.82 430.48 294.69 430.48 294.69 469.85 305.82 469.85 305.82 454.49 321.01 454.49 321.01 469.85 332.15 469.85 332.15 430.48 321.01 430.48 321.01 445.27"/><polygon class="cls-4" points="351.04 454.04 368.54 454.04 368.54 445.72 351.04 445.72 351.04 439.08 370.9 439.08 370.9 430.48 340.02 430.48 340.02 469.85 371.63 469.85 371.63 461.24 351.04 461.24 351.04 454.04"/><polygon class="cls-4" points="420.73 451.46 403.35 430.48 394.18 430.48 394.18 469.85 405.09 469.85 405.09 448.87 422.47 469.85 431.64 469.85 431.64 430.48 420.73 430.48 420.73 451.46"/><path class="cls-4" d="M470.39,431.32v-.25l.18.25Zm39.8-.84h-12l-7.74,11.38-7.89-11.38h-43v39.37h42.56l8-12.18,8.16,12.18h12.83L496.48,449.5l13-18v7.82h12.09v30.54h11.13V439.31h12v-8.83Z"/><circle class="cls-4" cx="367.01" cy="185.41" r="29.13"/><path class="cls-4" d="M399.11,427.12h0a15.06,15.06,0,0,0,13.27-16.67l-8.91-78.67,14.81-7.12a2.8,2.8,0,0,0,1.32-3.74l-16.67-34.7a13,13,0,0,0,9.51-5.89l13.31-20.65a14.65,14.65,0,0,0-5.06-20L399,228.54a13.12,13.12,0,0,0-4-1.29,9.8,9.8,0,0,0-6.72-2.67H362a89.56,89.56,0,0,1-28.25-4.42l-28.18-14.48a15.06,15.06,0,0,0-20.28,6.51h0a15.07,15.07,0,0,0,6.51,20.29l48.11,24.71v17.1l-15.58,53.32a2.81,2.81,0,0,0,1.91,3.48l13.67,4v77.07a15.07,15.07,0,0,0,30.13,0V339.07h4l8.48,74.77A15.06,15.06,0,0,0,399.11,427.12Z"/><circle class="cls-4" cx="244.11" cy="161.95" r="31.93"/><path class="cls-4" d="M280,286.27a16.49,16.49,0,0,0,19-21.75l-18.37-50.77a16.51,16.51,0,0,0-15-10.88,16.39,16.39,0,0,0-4.57-.65H227.85a16.53,16.53,0,0,0-4.95.75,16.53,16.53,0,0,0-14.13,12.34L195.42,268a16.51,16.51,0,0,0,12,20.07h0a16.44,16.44,0,0,0,7,.23V410.7a16.52,16.52,0,0,0,33,0V330.42h4.33l9.29,82a16.52,16.52,0,0,0,32.82-3.72Z"/></g><g class="cls-12"><polygon class="cls-4" points="109.19 445.27 94 445.27 94 430.48 82.87 430.48 82.87 469.85 94 469.85 94 454.49 109.19 454.49 109.19 469.85 120.33 469.85 120.33 430.48 109.19 430.48 109.19 445.27"/><polygon class="cls-4" points="139.22 454.04 156.72 454.04 156.72 445.72 139.22 445.72 139.22 439.08 159.08 439.08 159.08 430.48 128.2 430.48 128.2 469.85 159.81 469.85 159.81 461.24 139.22 461.24 139.22 454.04"/><polygon class="cls-4" points="177.13 430.48 166 430.48 166 469.85 195.92 469.85 195.92 461.02 177.13 461.02 177.13 430.48"/><path class="cls-4" d="M222.83,449.26a7.65,7.65,0,0,1-5.21,1.52h-6.18V439.25h6.18a7.7,7.7,0,0,1,5.21,1.52,5.42,5.42,0,0,1,1.71,4.27A5.35,5.35,0,0,1,222.83,449.26Zm4.78-17a22.78,22.78,0,0,0-9.31-1.74h-18v39.37h11.14V459.56h6.86a22.44,22.44,0,0,0,9.31-1.78,13.86,13.86,0,0,0,6-5,13.69,13.69,0,0,0,2.14-7.71,14,14,0,0,0-2.14-7.79A13.6,13.6,0,0,0,227.61,432.22Z"/><polygon class="cls-4" points="254.41 439.31 266.5 439.31 266.5 469.85 277.63 469.85 277.63 439.31 289.67 439.31 289.67 430.48 254.41 430.48 254.41 439.31"/><polygon class="cls-4" points="320.15 445.27 304.97 445.27 304.97 430.48 293.83 430.48 293.83 469.85 304.97 469.85 304.97 454.49 320.15 454.49 320.15 469.85 331.29 469.85 331.29 430.48 320.15 430.48 320.15 445.27"/><polygon class="cls-4" points="350.19 454.04 367.68 454.04 367.68 445.72 350.19 445.72 350.19 439.08 370.04 439.08 370.04 430.48 339.16 430.48 339.16 469.85 370.77 469.85 370.77 461.24 350.19 461.24 350.19 454.04"/><polygon class="cls-4" points="419.87 451.46 402.49 430.48 393.32 430.48 393.32 469.85 404.23 469.85 404.23 448.87 421.61 469.85 430.78 469.85 430.78 430.48 419.87 430.48 419.87 451.46"/><path class="cls-4" d="M469.53,431.32v-.25l.18.25Zm39.8-.84h-12l-7.74,11.38-7.89-11.38h-43v39.37h42.56l8-12.18,8.17,12.18h12.82l-14.6-20.35,13-18v7.82h12.09v30.54h11.14V439.31h12v-8.83Z"/><circle class="cls-4" cx="366.15" cy="185.41" r="29.13"/><path class="cls-4" d="M398.25,427.12h0a15.08,15.08,0,0,0,13.27-16.67l-8.92-78.67,14.81-7.12a2.8,2.8,0,0,0,1.32-3.74l-16.67-34.7a13,13,0,0,0,9.51-5.89l13.31-20.65a14.66,14.66,0,0,0-5.05-20l-21.67-11.13a13,13,0,0,0-4-1.29,9.76,9.76,0,0,0-6.72-2.67H361.13a89.51,89.51,0,0,1-28.25-4.42L304.7,205.68a15.07,15.07,0,0,0-20.29,6.51h0a15.08,15.08,0,0,0,6.52,20.29L339,257.19v17.1l-15.57,53.32a2.8,2.8,0,0,0,1.91,3.48l13.66,4v77.07a15.07,15.07,0,0,0,30.13,0V339.07h4l8.47,74.77A15.07,15.07,0,0,0,398.25,427.12Z"/><circle class="cls-4" cx="243.26" cy="161.95" r="31.93"/><path class="cls-4" d="M279.14,286.27a16.31,16.31,0,0,0,9.09-.6,16.52,16.52,0,0,0,9.92-21.15l-18.38-50.77a16.51,16.51,0,0,0-15-10.88,16.37,16.37,0,0,0-4.56-.65H227a16.57,16.57,0,0,0-5,.75,16.51,16.51,0,0,0-14.12,12.34L194.56,268a16.52,16.52,0,0,0,12,20.07h0a16.45,16.45,0,0,0,7,.23V410.7a16.52,16.52,0,0,0,33,0V330.42h4.33l9.29,82A16.52,16.52,0,0,0,293,408.68Z"/></g><g class="cls-13"><polygon class="cls-4" points="108.33 445.27 93.15 445.27 93.15 430.48 82.01 430.48 82.01 469.85 93.15 469.85 93.15 454.49 108.33 454.49 108.33 469.85 119.47 469.85 119.47 430.48 108.33 430.48 108.33 445.27"/><polygon class="cls-4" points="138.37 454.04 155.86 454.04 155.86 445.72 138.37 445.72 138.37 439.08 158.22 439.08 158.22 430.48 127.34 430.48 127.34 469.85 158.95 469.85 158.95 461.24 138.37 461.24 138.37 454.04"/><polygon class="cls-4" points="176.27 430.48 165.14 430.48 165.14 469.85 195.06 469.85 195.06 461.02 176.27 461.02 176.27 430.48"/><path class="cls-4" d="M222,449.26a7.62,7.62,0,0,1-5.2,1.52h-6.19V439.25h6.19a7.67,7.67,0,0,1,5.2,1.52,5.42,5.42,0,0,1,1.72,4.27A5.36,5.36,0,0,1,222,449.26Zm4.78-17a22.78,22.78,0,0,0-9.31-1.74h-18v39.37h11.13V459.56h6.86a22.44,22.44,0,0,0,9.31-1.78A13.26,13.26,0,0,0,234.93,445a14.06,14.06,0,0,0-2.13-7.79A13.63,13.63,0,0,0,226.75,432.22Z"/><polygon class="cls-4" points="253.55 439.31 265.64 439.31 265.64 469.85 276.78 469.85 276.78 439.31 288.81 439.31 288.81 430.48 253.55 430.48 253.55 439.31"/><polygon class="cls-4" points="319.3 445.27 304.11 445.27 304.11 430.48 292.97 430.48 292.97 469.85 304.11 469.85 304.11 454.49 319.3 454.49 319.3 469.85 330.43 469.85 330.43 430.48 319.3 430.48 319.3 445.27"/><polygon class="cls-4" points="349.33 454.04 366.82 454.04 366.82 445.72 349.33 445.72 349.33 439.08 369.18 439.08 369.18 430.48 338.31 430.48 338.31 469.85 369.91 469.85 369.91 461.24 349.33 461.24 349.33 454.04"/><polygon class="cls-4" points="419.01 451.46 401.63 430.48 392.47 430.48 392.47 469.85 403.38 469.85 403.38 448.87 420.76 469.85 429.92 469.85 429.92 430.48 419.01 430.48 419.01 451.46"/><path class="cls-4" d="M468.68,431.32v-.25l.17.25Zm39.79-.84h-12l-7.74,11.38-7.9-11.38h-43v39.37h42.55l8-12.18,8.16,12.18h12.82l-14.6-20.35,13-18v7.82h12.09v30.54H531V439.31h12v-8.83Z"/><circle class="cls-4" cx="365.29" cy="185.41" r="29.13"/><path class="cls-4" d="M397.4,427.12h0a15.06,15.06,0,0,0,13.27-16.67l-8.91-78.67,14.81-7.12a2.81,2.81,0,0,0,1.31-3.74l-16.66-34.7a13,13,0,0,0,9.5-5.89L424,259.68a14.65,14.65,0,0,0-5.06-20l-21.66-11.13a13.2,13.2,0,0,0-4-1.29,9.8,9.8,0,0,0-6.73-2.67H360.27A89.51,89.51,0,0,1,332,220.16l-28.18-14.48a15.07,15.07,0,0,0-20.29,6.51h0a15.08,15.08,0,0,0,6.52,20.29l48.1,24.71v17.1L322.6,327.61a2.8,2.8,0,0,0,1.91,3.48l13.66,4v77.07a15.07,15.07,0,0,0,30.13,0V339.07h4l8.47,74.77A15.08,15.08,0,0,0,397.4,427.12Z"/><circle class="cls-4" cx="242.4" cy="161.95" r="31.93"/><path class="cls-4" d="M278.28,286.27a16.35,16.35,0,0,0,9.1-.6,16.52,16.52,0,0,0,9.91-21.15l-18.38-50.77a16.51,16.51,0,0,0-15-10.88,16.37,16.37,0,0,0-4.56-.65H226.14a16.48,16.48,0,0,0-4.95.75,16.52,16.52,0,0,0-14.13,12.34L193.71,268a16.52,16.52,0,0,0,11.95,20.07h0a16.49,16.49,0,0,0,7,.23V410.7a16.52,16.52,0,0,0,33,0V330.42H250l9.29,82a16.52,16.52,0,0,0,32.82-3.72Z"/></g><g class="cls-14"><polygon class="cls-4" points="107.48 445.27 92.29 445.27 92.29 430.48 81.15 430.48 81.15 469.85 92.29 469.85 92.29 454.49 107.48 454.49 107.48 469.85 118.61 469.85 118.61 430.48 107.48 430.48 107.48 445.27"/><polygon class="cls-4" points="137.51 454.04 155 454.04 155 445.72 137.51 445.72 137.51 439.08 157.36 439.08 157.36 430.48 126.49 430.48 126.49 469.85 158.09 469.85 158.09 461.24 137.51 461.24 137.51 454.04"/><polygon class="cls-4" points="175.42 430.48 164.28 430.48 164.28 469.85 194.2 469.85 194.2 461.02 175.42 461.02 175.42 430.48"/><path class="cls-4" d="M221.11,449.26a7.62,7.62,0,0,1-5.2,1.52h-6.19V439.25h6.19a7.67,7.67,0,0,1,5.2,1.52,5.39,5.39,0,0,1,1.72,4.27A5.32,5.32,0,0,1,221.11,449.26Zm4.78-17a22.73,22.73,0,0,0-9.3-1.74h-18v39.37h11.13V459.56h6.87a22.39,22.39,0,0,0,9.3-1.78A13.29,13.29,0,0,0,234.08,445a14.06,14.06,0,0,0-2.14-7.79A13.63,13.63,0,0,0,225.89,432.22Z"/><polygon class="cls-4" points="252.69 439.31 264.78 439.31 264.78 469.85 275.92 469.85 275.92 439.31 287.95 439.31 287.95 430.48 252.69 430.48 252.69 439.31"/><polygon class="cls-4" points="318.44 445.27 303.25 445.27 303.25 430.48 292.12 430.48 292.12 469.85 303.25 469.85 303.25 454.49 318.44 454.49 318.44 469.85 329.57 469.85 329.57 430.48 318.44 430.48 318.44 445.27"/><polygon class="cls-4" points="348.47 454.04 365.96 454.04 365.96 445.72 348.47 445.72 348.47 439.08 368.33 439.08 368.33 430.48 337.45 430.48 337.45 469.85 369.06 469.85 369.06 461.24 348.47 461.24 348.47 454.04"/><polygon class="cls-4" points="418.15 451.46 400.78 430.48 391.61 430.48 391.61 469.85 402.52 469.85 402.52 448.87 419.9 469.85 429.07 469.85 429.07 430.48 418.15 430.48 418.15 451.46"/><path class="cls-4" d="M467.82,431.32v-.25l.18.25Zm39.8-.84h-12l-7.74,11.38-7.9-11.38h-43v39.37H479.5l8-12.18,8.16,12.18h12.83L493.91,449.5l13-18v7.82H519v30.54h11.13V439.31h12v-8.83Z"/><circle class="cls-4" cx="364.43" cy="185.41" r="29.13"/><path class="cls-4" d="M396.54,427.12h0a15.06,15.06,0,0,0,13.27-16.67l-8.91-78.67,14.81-7.12a2.79,2.79,0,0,0,1.31-3.74l-16.66-34.7a13,13,0,0,0,9.5-5.89l13.32-20.65a14.65,14.65,0,0,0-5.06-20l-21.66-11.13a13.2,13.2,0,0,0-4-1.29,9.8,9.8,0,0,0-6.72-2.67H359.41a89.56,89.56,0,0,1-28.25-4.42L303,205.68a15.06,15.06,0,0,0-20.28,6.51h0a15.07,15.07,0,0,0,6.51,20.29l48.11,24.71v17.1l-15.58,53.32a2.81,2.81,0,0,0,1.91,3.48l13.67,4v77.07a15.07,15.07,0,0,0,30.13,0V339.07h3.95l8.48,74.77A15.06,15.06,0,0,0,396.54,427.12Z"/><circle class="cls-4" cx="241.54" cy="161.95" r="31.93"/><path class="cls-4" d="M277.42,286.27a16.35,16.35,0,0,0,9.1-.6,16.51,16.51,0,0,0,9.91-21.15l-18.37-50.77a16.53,16.53,0,0,0-15-10.88,16.32,16.32,0,0,0-4.56-.65H225.28a16.53,16.53,0,0,0-4.95.75,16.52,16.52,0,0,0-14.13,12.34L192.85,268a16.52,16.52,0,0,0,12,20.07h0a16.49,16.49,0,0,0,7,.23V410.7a16.52,16.52,0,0,0,33,0V330.42h4.34l9.29,82a16.52,16.52,0,0,0,32.82-3.72Z"/></g><g class="cls-15"><polygon class="cls-4" points="106.62 445.27 91.43 445.27 91.43 430.48 80.3 430.48 80.3 469.85 91.43 469.85 91.43 454.49 106.62 454.49 106.62 469.85 117.75 469.85 117.75 430.48 106.62 430.48 106.62 445.27"/><polygon class="cls-4" points="136.65 454.04 154.14 454.04 154.14 445.72 136.65 445.72 136.65 439.08 156.51 439.08 156.51 430.48 125.63 430.48 125.63 469.85 157.24 469.85 157.24 461.24 136.65 461.24 136.65 454.04"/><polygon class="cls-4" points="174.56 430.48 163.42 430.48 163.42 469.85 193.34 469.85 193.34 461.02 174.56 461.02 174.56 430.48"/><path class="cls-4" d="M220.26,449.26a7.65,7.65,0,0,1-5.21,1.52h-6.18V439.25h6.18a7.7,7.7,0,0,1,5.21,1.52A5.42,5.42,0,0,1,222,445,5.35,5.35,0,0,1,220.26,449.26Zm4.78-17a22.78,22.78,0,0,0-9.31-1.74h-18v39.37h11.14V459.56h6.86a22.44,22.44,0,0,0,9.31-1.78,13.86,13.86,0,0,0,6-5,13.69,13.69,0,0,0,2.14-7.71,14,14,0,0,0-2.14-7.79A13.6,13.6,0,0,0,225,432.22Z"/><polygon class="cls-4" points="251.83 439.31 263.93 439.31 263.93 469.85 275.06 469.85 275.06 439.31 287.1 439.31 287.1 430.48 251.83 430.48 251.83 439.31"/><polygon class="cls-4" points="317.58 445.27 302.4 445.27 302.4 430.48 291.26 430.48 291.26 469.85 302.4 469.85 302.4 454.49 317.58 454.49 317.58 469.85 328.72 469.85 328.72 430.48 317.58 430.48 317.58 445.27"/><polygon class="cls-4" points="347.62 454.04 365.11 454.04 365.11 445.72 347.62 445.72 347.62 439.08 367.47 439.08 367.47 430.48 336.59 430.48 336.59 469.85 368.2 469.85 368.2 461.24 347.62 461.24 347.62 454.04"/><polygon class="cls-4" points="417.3 451.46 399.92 430.48 390.75 430.48 390.75 469.85 401.66 469.85 401.66 448.87 419.04 469.85 428.21 469.85 428.21 430.48 417.3 430.48 417.3 451.46"/><path class="cls-4" d="M467,431.32v-.25l.18.25Zm39.8-.84h-12L487,441.86l-7.89-11.38h-43v39.37h42.56l8-12.18,8.17,12.18h12.82l-14.6-20.35,13-18v7.82h12.09v30.54h11.14V439.31h12v-8.83Z"/><circle class="cls-4" cx="363.58" cy="185.41" r="29.13"/><path class="cls-4" d="M395.68,427.12h0A15.08,15.08,0,0,0,409,410.45L400,331.78l14.81-7.12a2.8,2.8,0,0,0,1.32-3.74l-16.67-34.7a13,13,0,0,0,9.51-5.89l13.31-20.65a14.65,14.65,0,0,0-5.06-20L395.6,228.54a13.12,13.12,0,0,0-4-1.29,9.8,9.8,0,0,0-6.72-2.67H358.56a89.51,89.51,0,0,1-28.25-4.42l-28.19-14.48a15.06,15.06,0,0,0-20.28,6.51h0a15.08,15.08,0,0,0,6.52,20.29l48.1,24.71v17.1l-15.57,53.32a2.79,2.79,0,0,0,1.9,3.48l13.67,4v77.07a15.07,15.07,0,0,0,30.13,0V339.07h4L379,413.84A15.07,15.07,0,0,0,395.68,427.12Z"/><circle class="cls-4" cx="240.68" cy="161.95" r="31.93"/><path class="cls-4" d="M276.56,286.27a16.49,16.49,0,0,0,19-21.75L277.2,213.75a16.51,16.51,0,0,0-15-10.88,16.37,16.37,0,0,0-4.56-.65H224.42a16.57,16.57,0,0,0-4.95.75,16.53,16.53,0,0,0-14.13,12.34L192,268a16.51,16.51,0,0,0,12,20.07h0a16.44,16.44,0,0,0,7,.23V410.7a16.52,16.52,0,0,0,33,0V330.42h4.33l9.29,82a16.52,16.52,0,0,0,32.83-3.72Z"/></g><g class="cls-16"><polygon class="cls-4" points="105.76 445.27 90.58 445.27 90.58 430.48 79.44 430.48 79.44 469.85 90.58 469.85 90.58 454.49 105.76 454.49 105.76 469.85 116.9 469.85 116.9 430.48 105.76 430.48 105.76 445.27"/><polygon class="cls-4" points="135.8 454.04 153.29 454.04 153.29 445.72 135.8 445.72 135.8 439.08 155.65 439.08 155.65 430.48 124.77 430.48 124.77 469.85 156.38 469.85 156.38 461.24 135.8 461.24 135.8 454.04"/><polygon class="cls-4" points="173.7 430.48 162.57 430.48 162.57 469.85 192.49 469.85 192.49 461.02 173.7 461.02 173.7 430.48"/><path class="cls-4" d="M219.4,449.26a7.63,7.63,0,0,1-5.2,1.52H208V439.25h6.19a7.69,7.69,0,0,1,5.2,1.52,5.42,5.42,0,0,1,1.71,4.27A5.35,5.35,0,0,1,219.4,449.26Zm4.78-17a22.78,22.78,0,0,0-9.31-1.74h-18v39.37H208V459.56h6.86a22.44,22.44,0,0,0,9.31-1.78,14,14,0,0,0,6-5,13.76,13.76,0,0,0,2.13-7.71,14.06,14.06,0,0,0-2.13-7.79A13.68,13.68,0,0,0,224.18,432.22Z"/><polygon class="cls-4" points="250.98 439.31 263.07 439.31 263.07 469.85 274.21 469.85 274.21 439.31 286.24 439.31 286.24 430.48 250.98 430.48 250.98 439.31"/><polygon class="cls-4" points="316.72 445.27 301.54 445.27 301.54 430.48 290.4 430.48 290.4 469.85 301.54 469.85 301.54 454.49 316.72 454.49 316.72 469.85 327.86 469.85 327.86 430.48 316.72 430.48 316.72 445.27"/><polygon class="cls-4" points="346.76 454.04 364.25 454.04 364.25 445.72 346.76 445.72 346.76 439.08 366.61 439.08 366.61 430.48 335.73 430.48 335.73 469.85 367.34 469.85 367.34 461.24 346.76 461.24 346.76 454.04"/><polygon class="cls-4" points="416.44 451.46 399.06 430.48 389.89 430.48 389.89 469.85 400.81 469.85 400.81 448.87 418.18 469.85 427.35 469.85 427.35 430.48 416.44 430.48 416.44 451.46"/><path class="cls-4" d="M466.1,431.32v-.25l.18.25Zm39.8-.84h-12l-7.74,11.38-7.9-11.38h-43v39.37h42.55l8-12.18L494,469.85H506.8L492.2,449.5l13-18v7.82h12.09v30.54H528.4V439.31h12v-8.83Z"/><circle class="cls-4" cx="362.72" cy="185.41" r="29.13"/><path class="cls-4" d="M394.83,427.12h0a15.07,15.07,0,0,0,13.27-16.67l-8.92-78.67L414,324.66a2.8,2.8,0,0,0,1.32-3.74l-16.66-34.7a13,13,0,0,0,9.5-5.89l13.31-20.65a14.63,14.63,0,0,0-5-20l-21.67-11.13a13,13,0,0,0-4-1.29,9.76,9.76,0,0,0-6.72-2.67H357.7a89.51,89.51,0,0,1-28.25-4.42l-28.18-14.48A15.07,15.07,0,0,0,281,212.19h0a15.08,15.08,0,0,0,6.52,20.29l48.1,24.71v17.1L320,327.61a2.8,2.8,0,0,0,1.91,3.48l13.66,4v77.07a15.07,15.07,0,0,0,30.13,0V339.07h4l8.47,74.77A15.08,15.08,0,0,0,394.83,427.12Z"/><circle class="cls-4" cx="239.83" cy="161.95" r="31.93"/><path class="cls-4" d="M275.71,286.27a16.35,16.35,0,0,0,9.1-.6,16.52,16.52,0,0,0,9.91-21.15l-18.38-50.77a16.51,16.51,0,0,0-15-10.88,16.37,16.37,0,0,0-4.56-.65H223.57a16.48,16.48,0,0,0-4.95.75,16.52,16.52,0,0,0-14.13,12.34L191.13,268a16.52,16.52,0,0,0,12,20.07h0a16.49,16.49,0,0,0,7,.23V410.7a16.52,16.52,0,0,0,33,0V330.42h4.34l9.29,82a16.52,16.52,0,0,0,32.82-3.72Z"/></g><g class="cls-17"><polygon class="cls-4" points="104.9 445.27 89.72 445.27 89.72 430.48 78.58 430.48 78.58 469.85 89.72 469.85 89.72 454.49 104.9 454.49 104.9 469.85 116.04 469.85 116.04 430.48 104.9 430.48 104.9 445.27"/><polygon class="cls-4" points="134.94 454.04 152.43 454.04 152.43 445.72 134.94 445.72 134.94 439.08 154.79 439.08 154.79 430.48 123.92 430.48 123.92 469.85 155.52 469.85 155.52 461.24 134.94 461.24 134.94 454.04"/><polygon class="cls-4" points="172.84 430.48 161.71 430.48 161.71 469.85 191.63 469.85 191.63 461.02 172.84 461.02 172.84 430.48"/><path class="cls-4" d="M218.54,449.26a7.62,7.62,0,0,1-5.2,1.52h-6.19V439.25h6.19a7.67,7.67,0,0,1,5.2,1.52,5.42,5.42,0,0,1,1.72,4.27A5.36,5.36,0,0,1,218.54,449.26Zm4.78-17a22.75,22.75,0,0,0-9.31-1.74H196v39.37h11.13V459.56H214a22.41,22.41,0,0,0,9.31-1.78A13.26,13.26,0,0,0,231.5,445a14.06,14.06,0,0,0-2.13-7.79A13.63,13.63,0,0,0,223.32,432.22Z"/><polygon class="cls-4" points="250.12 439.31 262.21 439.31 262.21 469.85 273.35 469.85 273.35 439.31 285.38 439.31 285.38 430.48 250.12 430.48 250.12 439.31"/><polygon class="cls-4" points="315.87 445.27 300.68 445.27 300.68 430.48 289.55 430.48 289.55 469.85 300.68 469.85 300.68 454.49 315.87 454.49 315.87 469.85 327 469.85 327 430.48 315.87 430.48 315.87 445.27"/><polygon class="cls-4" points="345.9 454.04 363.39 454.04 363.39 445.72 345.9 445.72 345.9 439.08 365.75 439.08 365.75 430.48 334.88 430.48 334.88 469.85 366.49 469.85 366.49 461.24 345.9 461.24 345.9 454.04"/><polygon class="cls-4" points="415.58 451.46 398.2 430.48 389.04 430.48 389.04 469.85 399.95 469.85 399.95 448.87 417.33 469.85 426.5 469.85 426.5 430.48 415.58 430.48 415.58 451.46"/><path class="cls-4" d="M465.25,431.32v-.25l.17.25Zm39.79-.84H493l-7.74,11.38-7.9-11.38h-43v39.37h42.55l8-12.18,8.16,12.18h12.82l-14.6-20.35,13-18v7.82h12.1v30.54h11.13V439.31h12v-8.83Z"/><circle class="cls-4" cx="361.86" cy="185.41" r="29.13"/><path class="cls-4" d="M394,427.12h0a15.06,15.06,0,0,0,13.27-16.67l-8.91-78.67,14.81-7.12a2.8,2.8,0,0,0,1.31-3.74l-16.66-34.7a13,13,0,0,0,9.5-5.89l13.32-20.65a14.65,14.65,0,0,0-5.06-20l-21.66-11.13a13.2,13.2,0,0,0-4-1.29,9.8,9.8,0,0,0-6.72-2.67H356.84a89.51,89.51,0,0,1-28.25-4.42l-28.18-14.48a15.06,15.06,0,0,0-20.28,6.51h0a15.06,15.06,0,0,0,6.51,20.29l48.11,24.71v17.1l-15.58,53.32a2.81,2.81,0,0,0,1.91,3.48l13.67,4v77.07a15.07,15.07,0,0,0,30.13,0V339.07h3.95l8.47,74.77A15.08,15.08,0,0,0,394,427.12Z"/><circle class="cls-4" cx="238.97" cy="161.95" r="31.93"/><path class="cls-4" d="M274.85,286.27a16.35,16.35,0,0,0,9.1-.6,16.51,16.51,0,0,0,9.91-21.15l-18.37-50.77a16.54,16.54,0,0,0-15-10.88,16.32,16.32,0,0,0-4.56-.65H222.71a16.48,16.48,0,0,0-5,.75,16.52,16.52,0,0,0-14.13,12.34L190.28,268a16.52,16.52,0,0,0,11.95,20.07h0a16.49,16.49,0,0,0,7,.23V410.7a16.52,16.52,0,0,0,33,0V330.42h4.34l9.29,82a16.52,16.52,0,0,0,32.82-3.72Z"/></g><g class="cls-18"><polygon class="cls-4" points="104.05 445.27 88.86 445.27 88.86 430.48 77.73 430.48 77.73 469.85 88.86 469.85 88.86 454.49 104.05 454.49 104.05 469.85 115.18 469.85 115.18 430.48 104.05 430.48 104.05 445.27"/><polygon class="cls-4" points="134.08 454.04 151.57 454.04 151.57 445.72 134.08 445.72 134.08 439.08 153.94 439.08 153.94 430.48 123.06 430.48 123.06 469.85 154.67 469.85 154.67 461.24 134.08 461.24 134.08 454.04"/><polygon class="cls-4" points="171.99 430.48 160.85 430.48 160.85 469.85 190.77 469.85 190.77 461.02 171.99 461.02 171.99 430.48"/><path class="cls-4" d="M217.68,449.26c-1.14,1-2.87,1.52-5.2,1.52H206.3V439.25h6.18a7.65,7.65,0,0,1,5.2,1.52A5.39,5.39,0,0,1,219.4,445,5.32,5.32,0,0,1,217.68,449.26Zm4.79-17a22.78,22.78,0,0,0-9.31-1.74h-18v39.37H206.3V459.56h6.86a22.44,22.44,0,0,0,9.31-1.78,13.86,13.86,0,0,0,6-5,13.69,13.69,0,0,0,2.14-7.71,14,14,0,0,0-2.14-7.79A13.6,13.6,0,0,0,222.47,432.22Z"/><polygon class="cls-4" points="249.26 439.31 261.36 439.31 261.36 469.85 272.49 469.85 272.49 439.31 284.53 439.31 284.53 430.48 249.26 430.48 249.26 439.31"/><polygon class="cls-4" points="315.01 445.27 299.82 445.27 299.82 430.48 288.69 430.48 288.69 469.85 299.82 469.85 299.82 454.49 315.01 454.49 315.01 469.85 326.15 469.85 326.15 430.48 315.01 430.48 315.01 445.27"/><polygon class="cls-4" points="345.04 454.04 362.54 454.04 362.54 445.72 345.04 445.72 345.04 439.08 364.9 439.08 364.9 430.48 334.02 430.48 334.02 469.85 365.63 469.85 365.63 461.24 345.04 461.24 345.04 454.04"/><polygon class="cls-4" points="414.73 451.46 397.35 430.48 388.18 430.48 388.18 469.85 399.09 469.85 399.09 448.87 416.47 469.85 425.64 469.85 425.64 430.48 414.73 430.48 414.73 451.46"/><path class="cls-4" d="M464.39,431.32v-.25l.18.25Zm39.8-.84h-12l-7.74,11.38-7.89-11.38h-43v39.37h42.56l8-12.18,8.16,12.18h12.83L490.48,449.5l13-18v7.82h12.09v30.54h11.13V439.31h12v-8.83Z"/><circle class="cls-4" cx="361.01" cy="185.41" r="29.13"/><path class="cls-4" d="M393.11,427.12h0a15.06,15.06,0,0,0,13.27-16.67l-8.91-78.67,14.81-7.12a2.8,2.8,0,0,0,1.32-3.74l-16.67-34.7a13,13,0,0,0,9.51-5.89l13.31-20.65a14.65,14.65,0,0,0-5.06-20L393,228.54a13.12,13.12,0,0,0-4-1.29,9.8,9.8,0,0,0-6.72-2.67H356a89.56,89.56,0,0,1-28.25-4.42l-28.18-14.48a15.06,15.06,0,0,0-20.28,6.51h0a15.07,15.07,0,0,0,6.51,20.29l48.11,24.71v17.1l-15.58,53.32a2.81,2.81,0,0,0,1.91,3.48l13.67,4v77.07a15.07,15.07,0,0,0,30.13,0V339.07h4l8.48,74.77A15.06,15.06,0,0,0,393.11,427.12Z"/><circle class="cls-4" cx="238.11" cy="161.95" r="31.93"/><path class="cls-4" d="M274,286.27a16.49,16.49,0,0,0,19-21.75l-18.37-50.77a16.51,16.51,0,0,0-15-10.88,16.39,16.39,0,0,0-4.57-.65H221.85a16.53,16.53,0,0,0-4.95.75,16.53,16.53,0,0,0-14.13,12.34L189.42,268a16.51,16.51,0,0,0,12,20.07h0a16.44,16.44,0,0,0,7,.23V410.7a16.52,16.52,0,0,0,33,0V330.42h4.33l9.29,82a16.52,16.52,0,0,0,32.82-3.72Z"/></g><g class="cls-19"><polygon class="cls-4" points="103.19 445.27 88 445.27 88 430.48 76.87 430.48 76.87 469.85 88 469.85 88 454.49 103.19 454.49 103.19 469.85 114.33 469.85 114.33 430.48 103.19 430.48 103.19 445.27"/><polygon class="cls-4" points="133.22 454.04 150.72 454.04 150.72 445.72 133.22 445.72 133.22 439.08 153.08 439.08 153.08 430.48 122.2 430.48 122.2 469.85 153.81 469.85 153.81 461.24 133.22 461.24 133.22 454.04"/><polygon class="cls-4" points="171.13 430.48 160 430.48 160 469.85 189.92 469.85 189.92 461.02 171.13 461.02 171.13 430.48"/><path class="cls-4" d="M216.83,449.26a7.65,7.65,0,0,1-5.21,1.52h-6.18V439.25h6.18a7.7,7.7,0,0,1,5.21,1.52,5.42,5.42,0,0,1,1.71,4.27A5.35,5.35,0,0,1,216.83,449.26Zm4.78-17a22.78,22.78,0,0,0-9.31-1.74h-18v39.37h11.14V459.56h6.86a22.44,22.44,0,0,0,9.31-1.78,13.86,13.86,0,0,0,6-5,13.69,13.69,0,0,0,2.14-7.71,14,14,0,0,0-2.14-7.79A13.6,13.6,0,0,0,221.61,432.22Z"/><polygon class="cls-4" points="248.41 439.31 260.5 439.31 260.5 469.85 271.63 469.85 271.63 439.31 283.67 439.31 283.67 430.48 248.41 430.48 248.41 439.31"/><polygon class="cls-4" points="314.15 445.27 298.97 445.27 298.97 430.48 287.83 430.48 287.83 469.85 298.97 469.85 298.97 454.49 314.15 454.49 314.15 469.85 325.29 469.85 325.29 430.48 314.15 430.48 314.15 445.27"/><polygon class="cls-4" points="344.19 454.04 361.68 454.04 361.68 445.72 344.19 445.72 344.19 439.08 364.04 439.08 364.04 430.48 333.16 430.48 333.16 469.85 364.77 469.85 364.77 461.24 344.19 461.24 344.19 454.04"/><polygon class="cls-4" points="413.87 451.46 396.49 430.48 387.32 430.48 387.32 469.85 398.23 469.85 398.23 448.87 415.61 469.85 424.78 469.85 424.78 430.48 413.87 430.48 413.87 451.46"/><path class="cls-4" d="M463.53,431.32v-.25l.18.25Zm39.8-.84h-12l-7.74,11.38-7.89-11.38h-43v39.37h42.56l8-12.18,8.17,12.18h12.82l-14.6-20.35,13-18v7.82h12.09v30.54h11.14V439.31h12v-8.83Z"/><circle class="cls-4" cx="360.15" cy="185.41" r="29.13"/><path class="cls-4" d="M392.25,427.12h0a15.08,15.08,0,0,0,13.27-16.67l-8.92-78.67,14.81-7.12a2.8,2.8,0,0,0,1.32-3.74l-16.67-34.7a13,13,0,0,0,9.51-5.89l13.31-20.65a14.66,14.66,0,0,0-5.05-20l-21.67-11.13a13,13,0,0,0-4-1.29,9.76,9.76,0,0,0-6.72-2.67H355.13a89.51,89.51,0,0,1-28.25-4.42L298.7,205.68a15.07,15.07,0,0,0-20.29,6.51h0a15.08,15.08,0,0,0,6.52,20.29L333,257.19v17.1l-15.57,53.32a2.8,2.8,0,0,0,1.91,3.48l13.66,4v77.07a15.07,15.07,0,0,0,30.13,0V339.07h4l8.47,74.77A15.07,15.07,0,0,0,392.25,427.12Z"/><circle class="cls-4" cx="237.26" cy="161.95" r="31.93"/><path class="cls-4" d="M273.14,286.27a16.31,16.31,0,0,0,9.09-.6,16.52,16.52,0,0,0,9.92-21.15l-18.38-50.77a16.51,16.51,0,0,0-15-10.88,16.37,16.37,0,0,0-4.56-.65H221a16.57,16.57,0,0,0-5,.75,16.51,16.51,0,0,0-14.12,12.34L188.56,268a16.52,16.52,0,0,0,12,20.07h0a16.45,16.45,0,0,0,7,.23V410.7a16.52,16.52,0,0,0,33,0V330.42h4.33l9.29,82A16.52,16.52,0,0,0,287,408.68Z"/></g><g class="cls-20"><polygon class="cls-4" points="102.33 445.27 87.15 445.27 87.15 430.48 76.01 430.48 76.01 469.85 87.15 469.85 87.15 454.49 102.33 454.49 102.33 469.85 113.47 469.85 113.47 430.48 102.33 430.48 102.33 445.27"/><polygon class="cls-4" points="132.37 454.04 149.86 454.04 149.86 445.72 132.37 445.72 132.37 439.08 152.22 439.08 152.22 430.48 121.34 430.48 121.34 469.85 152.95 469.85 152.95 461.24 132.37 461.24 132.37 454.04"/><polygon class="cls-4" points="170.27 430.48 159.14 430.48 159.14 469.85 189.06 469.85 189.06 461.02 170.27 461.02 170.27 430.48"/><path class="cls-4" d="M216,449.26a7.62,7.62,0,0,1-5.2,1.52h-6.19V439.25h6.19a7.67,7.67,0,0,1,5.2,1.52,5.42,5.42,0,0,1,1.72,4.27A5.36,5.36,0,0,1,216,449.26Zm4.78-17a22.78,22.78,0,0,0-9.31-1.74h-18v39.37h11.13V459.56h6.86a22.44,22.44,0,0,0,9.31-1.78A13.26,13.26,0,0,0,228.93,445a14.06,14.06,0,0,0-2.13-7.79A13.63,13.63,0,0,0,220.75,432.22Z"/><polygon class="cls-4" points="247.55 439.31 259.64 439.31 259.64 469.85 270.78 469.85 270.78 439.31 282.81 439.31 282.81 430.48 247.55 430.48 247.55 439.31"/><polygon class="cls-4" points="313.3 445.27 298.11 445.27 298.11 430.48 286.97 430.48 286.97 469.85 298.11 469.85 298.11 454.49 313.3 454.49 313.3 469.85 324.43 469.85 324.43 430.48 313.3 430.48 313.3 445.27"/><polygon class="cls-4" points="343.33 454.04 360.82 454.04 360.82 445.72 343.33 445.72 343.33 439.08 363.18 439.08 363.18 430.48 332.31 430.48 332.31 469.85 363.91 469.85 363.91 461.24 343.33 461.24 343.33 454.04"/><polygon class="cls-4" points="413.01 451.46 395.63 430.48 386.47 430.48 386.47 469.85 397.38 469.85 397.38 448.87 414.76 469.85 423.92 469.85 423.92 430.48 413.01 430.48 413.01 451.46"/><path class="cls-4" d="M462.68,431.32v-.25l.17.25Zm39.79-.84h-12l-7.74,11.38-7.9-11.38h-43v39.37h42.55l8-12.18,8.16,12.18h12.82l-14.6-20.35,13-18v7.82h12.09v30.54H525V439.31h12v-8.83Z"/><circle class="cls-4" cx="359.29" cy="185.41" r="29.13"/><path class="cls-4" d="M391.4,427.12h0a15.06,15.06,0,0,0,13.27-16.67l-8.91-78.67,14.81-7.12a2.81,2.81,0,0,0,1.31-3.74l-16.66-34.7a13,13,0,0,0,9.5-5.89L418,259.68a14.65,14.65,0,0,0-5.06-20l-21.66-11.13a13.2,13.2,0,0,0-4-1.29,9.8,9.8,0,0,0-6.73-2.67H354.27A89.51,89.51,0,0,1,326,220.16l-28.18-14.48a15.07,15.07,0,0,0-20.29,6.51h0a15.08,15.08,0,0,0,6.52,20.29l48.1,24.71v17.1L316.6,327.61a2.8,2.8,0,0,0,1.91,3.48l13.66,4v77.07a15.07,15.07,0,0,0,30.13,0V339.07h4l8.47,74.77A15.08,15.08,0,0,0,391.4,427.12Z"/><circle class="cls-4" cx="236.4" cy="161.95" r="31.93"/><path class="cls-4" d="M272.28,286.27a16.35,16.35,0,0,0,9.1-.6,16.52,16.52,0,0,0,9.91-21.15l-18.38-50.77a16.51,16.51,0,0,0-15-10.88,16.37,16.37,0,0,0-4.56-.65H220.14a16.48,16.48,0,0,0-4.95.75,16.52,16.52,0,0,0-14.13,12.34L187.71,268a16.52,16.52,0,0,0,11.95,20.07h0a16.49,16.49,0,0,0,7,.23V410.7a16.52,16.52,0,0,0,33,0V330.42H244l9.29,82a16.52,16.52,0,0,0,32.82-3.72Z"/></g><g class="cls-21"><polygon class="cls-4" points="101.48 445.27 86.29 445.27 86.29 430.48 75.15 430.48 75.15 469.85 86.29 469.85 86.29 454.49 101.48 454.49 101.48 469.85 112.61 469.85 112.61 430.48 101.48 430.48 101.48 445.27"/><polygon class="cls-4" points="131.51 454.04 149 454.04 149 445.72 131.51 445.72 131.51 439.08 151.36 439.08 151.36 430.48 120.49 430.48 120.49 469.85 152.09 469.85 152.09 461.24 131.51 461.24 131.51 454.04"/><polygon class="cls-4" points="169.42 430.48 158.28 430.48 158.28 469.85 188.2 469.85 188.2 461.02 169.42 461.02 169.42 430.48"/><path class="cls-4" d="M215.11,449.26a7.62,7.62,0,0,1-5.2,1.52h-6.19V439.25h6.19a7.67,7.67,0,0,1,5.2,1.52,5.39,5.39,0,0,1,1.72,4.27A5.32,5.32,0,0,1,215.11,449.26Zm4.78-17a22.73,22.73,0,0,0-9.3-1.74h-18v39.37h11.13V459.56h6.87a22.39,22.39,0,0,0,9.3-1.78A13.29,13.29,0,0,0,228.08,445a14.06,14.06,0,0,0-2.14-7.79A13.63,13.63,0,0,0,219.89,432.22Z"/><polygon class="cls-4" points="246.69 439.31 258.78 439.31 258.78 469.85 269.92 469.85 269.92 439.31 281.95 439.31 281.95 430.48 246.69 430.48 246.69 439.31"/><polygon class="cls-4" points="312.44 445.27 297.25 445.27 297.25 430.48 286.12 430.48 286.12 469.85 297.25 469.85 297.25 454.49 312.44 454.49 312.44 469.85 323.57 469.85 323.57 430.48 312.44 430.48 312.44 445.27"/><polygon class="cls-4" points="342.47 454.04 359.96 454.04 359.96 445.72 342.47 445.72 342.47 439.08 362.33 439.08 362.33 430.48 331.45 430.48 331.45 469.85 363.06 469.85 363.06 461.24 342.47 461.24 342.47 454.04"/><polygon class="cls-4" points="412.15 451.46 394.78 430.48 385.61 430.48 385.61 469.85 396.52 469.85 396.52 448.87 413.9 469.85 423.07 469.85 423.07 430.48 412.15 430.48 412.15 451.46"/><path class="cls-4" d="M461.82,431.32v-.25l.18.25Zm39.8-.84h-12l-7.74,11.38-7.9-11.38h-43v39.37H473.5l8-12.18,8.16,12.18h12.83L487.91,449.5l13-18v7.82H513v30.54h11.13V439.31h12v-8.83Z"/><circle class="cls-4" cx="358.43" cy="185.41" r="29.13"/><path class="cls-4" d="M390.54,427.12h0a15.06,15.06,0,0,0,13.27-16.67l-8.91-78.67,14.81-7.12a2.79,2.79,0,0,0,1.31-3.74l-16.66-34.7a13,13,0,0,0,9.5-5.89l13.32-20.65a14.65,14.65,0,0,0-5.06-20l-21.66-11.13a13.2,13.2,0,0,0-4-1.29,9.8,9.8,0,0,0-6.72-2.67H353.41a89.56,89.56,0,0,1-28.25-4.42L297,205.68a15.06,15.06,0,0,0-20.28,6.51h0a15.07,15.07,0,0,0,6.51,20.29l48.11,24.71v17.1l-15.58,53.32a2.81,2.81,0,0,0,1.91,3.48l13.67,4v77.07a15.07,15.07,0,0,0,30.13,0V339.07h3.95l8.48,74.77A15.06,15.06,0,0,0,390.54,427.12Z"/><circle class="cls-4" cx="235.54" cy="161.95" r="31.93"/><path class="cls-4" d="M271.42,286.27a16.35,16.35,0,0,0,9.1-.6,16.51,16.51,0,0,0,9.91-21.15l-18.37-50.77a16.53,16.53,0,0,0-15-10.88,16.32,16.32,0,0,0-4.56-.65H219.28a16.53,16.53,0,0,0-4.95.75,16.52,16.52,0,0,0-14.13,12.34L186.85,268a16.52,16.52,0,0,0,12,20.07h0a16.49,16.49,0,0,0,7,.23V410.7a16.52,16.52,0,0,0,33,0V330.42h4.34l9.29,82a16.52,16.52,0,0,0,32.82-3.72Z"/></g><g class="cls-22"><polygon class="cls-4" points="100.62 445.27 85.43 445.27 85.43 430.48 74.3 430.48 74.3 469.85 85.43 469.85 85.43 454.49 100.62 454.49 100.62 469.85 111.75 469.85 111.75 430.48 100.62 430.48 100.62 445.27"/><polygon class="cls-4" points="130.65 454.04 148.14 454.04 148.14 445.72 130.65 445.72 130.65 439.08 150.51 439.08 150.51 430.48 119.63 430.48 119.63 469.85 151.24 469.85 151.24 461.24 130.65 461.24 130.65 454.04"/><polygon class="cls-4" points="168.56 430.48 157.42 430.48 157.42 469.85 187.34 469.85 187.34 461.02 168.56 461.02 168.56 430.48"/><path class="cls-4" d="M214.26,449.26a7.65,7.65,0,0,1-5.21,1.52h-6.18V439.25h6.18a7.7,7.7,0,0,1,5.21,1.52A5.42,5.42,0,0,1,216,445,5.35,5.35,0,0,1,214.26,449.26Zm4.78-17a22.78,22.78,0,0,0-9.31-1.74h-18v39.37h11.14V459.56h6.86a22.44,22.44,0,0,0,9.31-1.78,13.86,13.86,0,0,0,6-5,13.69,13.69,0,0,0,2.14-7.71,14,14,0,0,0-2.14-7.79A13.6,13.6,0,0,0,219,432.22Z"/><polygon class="cls-4" points="245.83 439.31 257.93 439.31 257.93 469.85 269.06 469.85 269.06 439.31 281.1 439.31 281.1 430.48 245.83 430.48 245.83 439.31"/><polygon class="cls-4" points="311.58 445.27 296.4 445.27 296.4 430.48 285.26 430.48 285.26 469.85 296.4 469.85 296.4 454.49 311.58 454.49 311.58 469.85 322.72 469.85 322.72 430.48 311.58 430.48 311.58 445.27"/><polygon class="cls-4" points="341.62 454.04 359.11 454.04 359.11 445.72 341.62 445.72 341.62 439.08 361.47 439.08 361.47 430.48 330.59 430.48 330.59 469.85 362.2 469.85 362.2 461.24 341.62 461.24 341.62 454.04"/><polygon class="cls-4" points="411.3 451.46 393.92 430.48 384.75 430.48 384.75 469.85 395.66 469.85 395.66 448.87 413.04 469.85 422.21 469.85 422.21 430.48 411.3 430.48 411.3 451.46"/><path class="cls-4" d="M461,431.32v-.25l.18.25Zm39.8-.84h-12L481,441.86l-7.89-11.38h-43v39.37h42.56l8-12.18,8.17,12.18h12.82l-14.6-20.35,13-18v7.82h12.09v30.54h11.14V439.31h12v-8.83Z"/><circle class="cls-4" cx="357.58" cy="185.41" r="29.13"/><path class="cls-4" d="M389.68,427.12h0A15.08,15.08,0,0,0,403,410.45L394,331.78l14.81-7.12a2.8,2.8,0,0,0,1.32-3.74l-16.67-34.7a13,13,0,0,0,9.51-5.89l13.31-20.65a14.65,14.65,0,0,0-5.06-20L389.6,228.54a13.12,13.12,0,0,0-4-1.29,9.8,9.8,0,0,0-6.72-2.67H352.56a89.51,89.51,0,0,1-28.25-4.42l-28.19-14.48a15.06,15.06,0,0,0-20.28,6.51h0a15.08,15.08,0,0,0,6.52,20.29l48.1,24.71v17.1l-15.57,53.32a2.79,2.79,0,0,0,1.9,3.48l13.67,4v77.07a15.07,15.07,0,0,0,30.13,0V339.07h4L373,413.84A15.07,15.07,0,0,0,389.68,427.12Z"/><circle class="cls-4" cx="234.68" cy="161.95" r="31.93"/><path class="cls-4" d="M270.56,286.27a16.49,16.49,0,0,0,19-21.75L271.2,213.75a16.51,16.51,0,0,0-15-10.88,16.37,16.37,0,0,0-4.56-.65H218.42a16.57,16.57,0,0,0-4.95.75,16.53,16.53,0,0,0-14.13,12.34L186,268a16.51,16.51,0,0,0,12,20.07h0a16.44,16.44,0,0,0,7,.23V410.7a16.52,16.52,0,0,0,33,0V330.42h4.33l9.29,82a16.52,16.52,0,0,0,32.83-3.72Z"/></g><g class="cls-23"><polygon class="cls-4" points="99.76 445.27 84.58 445.27 84.58 430.48 73.44 430.48 73.44 469.85 84.58 469.85 84.58 454.49 99.76 454.49 99.76 469.85 110.9 469.85 110.9 430.48 99.76 430.48 99.76 445.27"/><polygon class="cls-4" points="129.8 454.04 147.29 454.04 147.29 445.72 129.8 445.72 129.8 439.08 149.65 439.08 149.65 430.48 118.77 430.48 118.77 469.85 150.38 469.85 150.38 461.24 129.8 461.24 129.8 454.04"/><polygon class="cls-4" points="167.7 430.48 156.57 430.48 156.57 469.85 186.49 469.85 186.49 461.02 167.7 461.02 167.7 430.48"/><path class="cls-4" d="M213.4,449.26a7.63,7.63,0,0,1-5.2,1.52H202V439.25h6.19a7.69,7.69,0,0,1,5.2,1.52,5.42,5.42,0,0,1,1.71,4.27A5.35,5.35,0,0,1,213.4,449.26Zm4.78-17a22.78,22.78,0,0,0-9.31-1.74h-18v39.37H202V459.56h6.86a22.44,22.44,0,0,0,9.31-1.78,14,14,0,0,0,6-5,13.76,13.76,0,0,0,2.13-7.71,14.06,14.06,0,0,0-2.13-7.79A13.68,13.68,0,0,0,218.18,432.22Z"/><polygon class="cls-4" points="244.98 439.31 257.07 439.31 257.07 469.85 268.21 469.85 268.21 439.31 280.24 439.31 280.24 430.48 244.98 430.48 244.98 439.31"/><polygon class="cls-4" points="310.72 445.27 295.54 445.27 295.54 430.48 284.4 430.48 284.4 469.85 295.54 469.85 295.54 454.49 310.72 454.49 310.72 469.85 321.86 469.85 321.86 430.48 310.72 430.48 310.72 445.27"/><polygon class="cls-4" points="340.76 454.04 358.25 454.04 358.25 445.72 340.76 445.72 340.76 439.08 360.61 439.08 360.61 430.48 329.73 430.48 329.73 469.85 361.34 469.85 361.34 461.24 340.76 461.24 340.76 454.04"/><polygon class="cls-4" points="410.44 451.46 393.06 430.48 383.89 430.48 383.89 469.85 394.81 469.85 394.81 448.87 412.18 469.85 421.35 469.85 421.35 430.48 410.44 430.48 410.44 451.46"/><path class="cls-4" d="M460.1,431.32v-.25l.18.25Zm39.8-.84h-12l-7.74,11.38-7.9-11.38h-43v39.37h42.55l8-12.18L488,469.85H500.8L486.2,449.5l13-18v7.82h12.09v30.54H522.4V439.31h12v-8.83Z"/><circle class="cls-4" cx="356.72" cy="185.41" r="29.13"/><path class="cls-4" d="M388.83,427.12h0a15.07,15.07,0,0,0,13.27-16.67l-8.92-78.67L408,324.66a2.8,2.8,0,0,0,1.32-3.74l-16.66-34.7a13,13,0,0,0,9.5-5.89l13.31-20.65a14.63,14.63,0,0,0-5-20l-21.67-11.13a13,13,0,0,0-4-1.29,9.76,9.76,0,0,0-6.72-2.67H351.7a89.51,89.51,0,0,1-28.25-4.42l-28.18-14.48A15.07,15.07,0,0,0,275,212.19h0a15.08,15.08,0,0,0,6.52,20.29l48.1,24.71v17.1L314,327.61a2.8,2.8,0,0,0,1.91,3.48l13.66,4v77.07a15.07,15.07,0,0,0,30.13,0V339.07h4l8.47,74.77A15.08,15.08,0,0,0,388.83,427.12Z"/><circle class="cls-4" cx="233.83" cy="161.95" r="31.93"/><path class="cls-4" d="M269.71,286.27a16.35,16.35,0,0,0,9.1-.6,16.52,16.52,0,0,0,9.91-21.15l-18.38-50.77a16.51,16.51,0,0,0-15-10.88,16.37,16.37,0,0,0-4.56-.65H217.57a16.48,16.48,0,0,0-4.95.75,16.52,16.52,0,0,0-14.13,12.34L185.13,268a16.52,16.52,0,0,0,12,20.07h0a16.49,16.49,0,0,0,7,.23V410.7a16.52,16.52,0,0,0,33,0V330.42h4.34l9.29,82a16.52,16.52,0,0,0,32.82-3.72Z"/></g><polygon class="cls-4" points="98.9 445.27 83.72 445.27 83.72 430.48 72.58 430.48 72.58 469.85 83.72 469.85 83.72 454.49 98.9 454.49 98.9 469.85 110.04 469.85 110.04 430.48 98.9 430.48 98.9 445.27"/><polygon class="cls-4" points="128.94 454.04 146.43 454.04 146.43 445.72 128.94 445.72 128.94 439.08 148.79 439.08 148.79 430.48 117.92 430.48 117.92 469.85 149.52 469.85 149.52 461.24 128.94 461.24 128.94 454.04"/><polygon class="cls-4" points="166.84 430.48 155.71 430.48 155.71 469.85 185.63 469.85 185.63 461.02 166.84 461.02 166.84 430.48"/><path class="cls-4" d="M212.54,449.26a7.62,7.62,0,0,1-5.2,1.52h-6.19V439.25h6.19a7.67,7.67,0,0,1,5.2,1.52,5.42,5.42,0,0,1,1.72,4.27A5.36,5.36,0,0,1,212.54,449.26Zm4.78-17a22.75,22.75,0,0,0-9.31-1.74H190v39.37h11.13V459.56H208a22.41,22.41,0,0,0,9.31-1.78A13.26,13.26,0,0,0,225.5,445a14.06,14.06,0,0,0-2.13-7.79A13.63,13.63,0,0,0,217.32,432.22Z"/><polygon class="cls-4" points="244.12 439.31 256.21 439.31 256.21 469.85 267.35 469.85 267.35 439.31 279.38 439.31 279.38 430.48 244.12 430.48 244.12 439.31"/><polygon class="cls-4" points="309.87 445.27 294.68 445.27 294.68 430.48 283.55 430.48 283.55 469.85 294.68 469.85 294.68 454.49 309.87 454.49 309.87 469.85 321 469.85 321 430.48 309.87 430.48 309.87 445.27"/><polygon class="cls-4" points="339.9 454.04 357.39 454.04 357.39 445.72 339.9 445.72 339.9 439.08 359.75 439.08 359.75 430.48 328.88 430.48 328.88 469.85 360.49 469.85 360.49 461.24 339.9 461.24 339.9 454.04"/><polygon class="cls-4" points="409.58 451.46 392.2 430.48 383.04 430.48 383.04 469.85 393.95 469.85 393.95 448.87 411.33 469.85 420.5 469.85 420.5 430.48 409.58 430.48 409.58 451.46"/><path class="cls-4" d="M459.25,431.32v-.25l.17.25Zm39.79-.84H487l-7.74,11.38-7.9-11.38h-43v39.37h42.55l8-12.18,8.16,12.18h12.82l-14.6-20.35,13-18v7.82h12.1v30.54h11.13V439.31h12v-8.83Z"/><circle class="cls-4" cx="355.86" cy="185.41" r="29.13"/><path class="cls-4" d="M388,427.12h0a15.06,15.06,0,0,0,13.27-16.67l-8.91-78.67,14.81-7.12a2.8,2.8,0,0,0,1.31-3.74l-16.66-34.7a13,13,0,0,0,9.5-5.89l13.32-20.65a14.65,14.65,0,0,0-5.06-20l-21.66-11.13a13.2,13.2,0,0,0-4-1.29,9.8,9.8,0,0,0-6.72-2.67H350.84a89.51,89.51,0,0,1-28.25-4.42l-28.18-14.48a15.06,15.06,0,0,0-20.28,6.51h0a15.06,15.06,0,0,0,6.51,20.29l48.11,24.71v17.1l-15.58,53.32a2.81,2.81,0,0,0,1.91,3.48l13.67,4v77.07a15.07,15.07,0,0,0,30.13,0V339.07h3.95l8.47,74.77A15.08,15.08,0,0,0,388,427.12Z"/><circle class="cls-4" cx="232.97" cy="161.95" r="31.93"/><path class="cls-4" d="M268.85,286.27a16.35,16.35,0,0,0,9.1-.6,16.51,16.51,0,0,0,9.91-21.15l-18.37-50.77a16.54,16.54,0,0,0-15-10.88,16.32,16.32,0,0,0-4.56-.65H216.71a16.48,16.48,0,0,0-5,.75,16.52,16.52,0,0,0-14.13,12.34L184.28,268a16.52,16.52,0,0,0,11.95,20.07h0a16.49,16.49,0,0,0,7,.23V410.7a16.52,16.52,0,0,0,33,0V330.42h4.34l9.29,82a16.52,16.52,0,0,0,32.82-3.72Z"/><path class="cls-24" d="M471.29,445.38v-11.8a2.26,2.26,0,0,0-2.26-2.26H431.36a2.26,2.26,0,0,0-2.26,2.26v33.64a2.26,2.26,0,0,0,2.26,2.26H469a2.26,2.26,0,0,0,2.26-2.26V453.41a4,4,0,0,0,0-8Z"/><text class="cls-25" transform="translate(68.65 469.85)">HELP THE NE</text><text class="cls-26" transform="translate(458.32 469.85)">X<tspan class="cls-27" x="39.76" y="0">T</tspan></text><circle class="cls-28" cx="355.86" cy="185.41" r="29.13"/><path class="cls-24" d="M401.29,280.33l13.32-20.65a14.65,14.65,0,0,0-5.06-20l-21.66-11.13a13.2,13.2,0,0,0-4-1.29,9.8,9.8,0,0,0-6.72-2.67H350.84a89.51,89.51,0,0,1-28.25-4.42l-28.18-14.48a15.06,15.06,0,0,0-20.28,6.51h0a15.06,15.06,0,0,0,6.51,20.29l48.11,24.71v17.1l-15.58,53.32a2.81,2.81,0,0,0,1.91,3.48l13.67,4v77.07a15.07,15.07,0,0,0,30.13,0V339.07h3.95l8.47,74.77A15.08,15.08,0,0,0,388,427.12h0a15.06,15.06,0,0,0,13.27-16.67l-8.91-78.67,14.81-7.12a2.8,2.8,0,0,0,1.31-3.74l-16.66-34.7A13,13,0,0,0,401.29,280.33Z"/><circle class="cls-24" cx="232.97" cy="161.95" r="31.93"/><path class="cls-28" d="M278,285.67a16.51,16.51,0,0,0,9.91-21.15l-18.37-50.77a16.54,16.54,0,0,0-15-10.88,16.32,16.32,0,0,0-4.56-.65H216.71a16.48,16.48,0,0,0-5,.75,16.52,16.52,0,0,0-14.13,12.34L184.28,268a16.52,16.52,0,0,0,11.95,20.07h0a16.49,16.49,0,0,0,7,.23V410.7a16.52,16.52,0,0,0,33,0V330.42h4.34l9.29,82a16.52,16.52,0,0,0,32.82-3.72L268.85,286.27A16.35,16.35,0,0,0,278,285.67Z"/></svg>