<svg id="Layer_1" data-name="Layer 1" xmlns="http://www.w3.org/2000/svg" viewBox="0 0 600 600"><defs><style>.cls-1{opacity:0;}.cls-2{fill:none;}.cls-3{opacity:0.05;}.cls-4{fill:#999;}.cls-5{opacity:0.1;}.cls-6{opacity:0.14;}.cls-7{opacity:0.19;}.cls-8{opacity:0.24;}.cls-9{opacity:0.29;}.cls-10{opacity:0.33;}.cls-11{opacity:0.38;}.cls-12{opacity:0.43;}.cls-13{opacity:0.48;}.cls-14{opacity:0.52;}.cls-15{opacity:0.57;}.cls-16{opacity:0.62;}.cls-17{opacity:0.67;}.cls-18{opacity:0.71;}.cls-19{opacity:0.76;}.cls-20{opacity:0.81;}.cls-21{opacity:0.86;}.cls-22{opacity:0.9;}.cls-23{opacity:0.95;}.cls-24{fill:#8cd8bc;}.cls-25{font-size:56.24px;}.cls-25,.cls-26,.cls-27{fill:#283673;}.cls-25,.cls-27{font-family:Montserrat-ExtraBold, Montserrat;font-weight:800;}.cls-27{font-size:34px;}</style></defs><g class="cls-1"><polygon class="cls-2" points="116.9 445.27 101.72 445.27 101.72 430.48 90.58 430.48 90.58 469.85 101.72 469.85 101.72 454.49 116.9 454.49 116.9 469.85 128.04 469.85 128.04 430.48 116.9 430.48 116.9 445.27"/><polygon class="cls-2" points="146.94 454.04 164.43 454.04 164.43 445.72 146.94 445.72 146.94 439.08 166.79 439.08 166.79 430.48 135.91 430.48 135.91 469.85 167.52 469.85 167.52 461.24 146.94 461.24 146.94 454.04"/><polygon class="cls-2" points="184.84 430.48 173.71 430.48 173.71 469.85 203.63 469.85 203.63 461.02 184.84 461.02 184.84 430.48"/><path class="cls-2" d="M230.54,449.26a7.62,7.62,0,0,1-5.2,1.52h-6.19V439.25h6.19a7.67,7.67,0,0,1,5.2,1.52,5.42,5.42,0,0,1,1.72,4.27A5.36,5.36,0,0,1,230.54,449.26Zm4.78-17a22.75,22.75,0,0,0-9.31-1.74H208v39.37h11.13V459.56H226a22.41,22.41,0,0,0,9.31-1.78A13.26,13.26,0,0,0,243.5,445a14.06,14.06,0,0,0-2.13-7.79A13.63,13.63,0,0,0,235.32,432.22Z"/><polygon class="cls-2" points="262.12 439.31 274.21 439.31 274.21 469.85 285.35 469.85 285.35 439.31 297.38 439.31 297.38 430.48 262.12 430.48 262.12 439.31"/><polygon class="cls-2" points="327.87 445.27 312.68 445.27 312.68 430.48 301.55 430.48 301.55 469.85 312.68 469.85 312.68 454.49 327.87 454.49 327.87 469.85 339 469.85 339 430.48 327.87 430.48 327.87 445.27"/><polygon class="cls-2" points="357.9 454.04 375.39 454.04 375.39 445.72 357.9 445.72 357.9 439.08 377.75 439.08 377.75 430.48 346.88 430.48 346.88 469.85 378.49 469.85 378.49 461.24 357.9 461.24 357.9 454.04"/><polygon class="cls-2" points="427.58 451.46 410.2 430.48 401.04 430.48 401.04 469.85 411.95 469.85 411.95 448.87 429.33 469.85 438.5 469.85 438.5 430.48 427.58 430.48 427.58 451.46"/><path class="cls-2" d="M477.25,431.32v-.25l.17.25Zm39.79-.84H505l-7.74,11.38-7.9-11.38h-43v39.37h42.55l8-12.18,8.16,12.18h12.82l-14.6-20.35,13-18v7.82h12.1v30.54h11.13V439.31h12v-8.83Z"/><circle class="cls-2" cx="373.86" cy="185.41" r="29.13"/><path class="cls-2" d="M406,427.12h0a15.06,15.06,0,0,0,13.27-16.67l-8.91-78.67,14.81-7.12a2.8,2.8,0,0,0,1.31-3.74l-16.66-34.7a13,13,0,0,0,9.5-5.89l13.32-20.65a14.65,14.65,0,0,0-5.06-20l-21.66-11.13a13.2,13.2,0,0,0-4-1.29,9.8,9.8,0,0,0-6.72-2.67H368.84a89.51,89.51,0,0,1-28.25-4.42l-28.18-14.48a15.06,15.06,0,0,0-20.28,6.51h0a15.06,15.06,0,0,0,6.51,20.29l48.11,24.71v17.1l-15.58,53.32a2.81,2.81,0,0,0,1.91,3.48l13.67,4v77.07a15.07,15.07,0,0,0,30.13,0V339.07h3.95l8.47,74.77A15.08,15.08,0,0,0,406,427.12Z"/><circle class="cls-2" cx="250.97" cy="161.95" r="31.93"/><path class="cls-2" d="M286.85,286.27a16.35,16.35,0,0,0,9.1-.6,16.51,16.51,0,0,0,9.91-21.15l-18.37-50.77a16.54,16.54,0,0,0-15-10.88,16.32,16.32,0,0,0-4.56-.65H234.71a16.48,16.48,0,0,0-5,.75,16.52,16.52,0,0,0-14.13,12.34L202.28,268a16.52,16.52,0,0,0,11.95,20.07h0a16.49,16.49,0,0,0,7,.23V410.7a16.52,16.52,0,0,0,33,0V330.42h4.34l9.29,82a16.52,16.52,0,0,0,32.82-3.72Z"/></g><g class="cls-3"><polygon class="cls-4" points="116 445.27 100.81 445.27 100.81 430.48 89.68 430.48 89.68 469.85 100.81 469.85 100.81 454.49 116 454.49 116 469.85 127.14 469.85 127.14 430.48 116 430.48 116 445.27"/><polygon class="cls-4" points="145.99 454.04 163.48 454.04 163.48 445.72 145.99 445.72 145.99 439.08 165.84 439.08 165.84 430.48 134.96 430.48 134.96 469.85 166.57 469.85 166.57 461.24 145.99 461.24 145.99 454.04"/><polygon class="cls-4" points="183.89 430.48 172.76 430.48 172.76 469.85 202.68 469.85 202.68 461.02 183.89 461.02 183.89 430.48"/><path class="cls-4" d="M229.49,449.26c-1.14,1-2.87,1.52-5.2,1.52H218.1V439.25h6.19a7.65,7.65,0,0,1,5.2,1.52,5.39,5.39,0,0,1,1.72,4.27A5.32,5.32,0,0,1,229.49,449.26Zm4.78-17a22.7,22.7,0,0,0-9.3-1.74H207v39.37H218.1V459.56H225a22.36,22.36,0,0,0,9.3-1.78,13.89,13.89,0,0,0,6-5,13.69,13.69,0,0,0,2.14-7.71,14,14,0,0,0-2.14-7.79A13.63,13.63,0,0,0,234.27,432.22Z"/><polygon class="cls-4" points="260.79 439.31 272.88 439.31 272.88 469.85 284.01 469.85 284.01 439.31 296.05 439.31 296.05 430.48 260.79 430.48 260.79 439.31"/><polygon class="cls-4" points="326.49 445.27 311.3 445.27 311.3 430.48 300.17 430.48 300.17 469.85 311.3 469.85 311.3 454.49 326.49 454.49 326.49 469.85 337.62 469.85 337.62 430.48 326.49 430.48 326.49 445.27"/><polygon class="cls-4" points="356.57 454.04 374.06 454.04 374.06 445.72 356.57 445.72 356.57 439.08 376.42 439.08 376.42 430.48 345.54 430.48 345.54 469.85 377.15 469.85 377.15 461.24 356.57 461.24 356.57 454.04"/><polygon class="cls-4" points="425.96 451.46 408.59 430.48 399.42 430.48 399.42 469.85 410.33 469.85 410.33 448.87 427.71 469.85 436.88 469.85 436.88 430.48 425.96 430.48 425.96 451.46"/><path class="cls-4" d="M475.77,431.32v-.25l.18.25Zm39.8-.84h-12l-7.74,11.38-7.89-11.38h-43v39.37h42.56l8-12.18,8.16,12.18h12.83L501.86,449.5l13-18v7.82h12.09v30.54h11.14V439.31h12v-8.83Z"/><circle class="cls-4" cx="373.01" cy="185.41" r="29.13"/><path class="cls-4" d="M405.11,427.12h0a15.06,15.06,0,0,0,13.27-16.67l-8.91-78.67,14.81-7.12a2.8,2.8,0,0,0,1.32-3.74l-16.67-34.7a13,13,0,0,0,9.51-5.89l13.31-20.65a14.65,14.65,0,0,0-5.06-20L405,228.54a13.12,13.12,0,0,0-4-1.29,9.8,9.8,0,0,0-6.72-2.67H368a89.56,89.56,0,0,1-28.25-4.42l-28.18-14.48a15.06,15.06,0,0,0-20.28,6.51h0a15.07,15.07,0,0,0,6.51,20.29l48.11,24.71v17.1l-15.58,53.32a2.81,2.81,0,0,0,1.91,3.48l13.67,4v77.07a15.07,15.07,0,0,0,30.13,0V339.07h4l8.48,74.77A15.06,15.06,0,0,0,405.11,427.12Z"/><circle class="cls-4" cx="250.11" cy="161.95" r="31.93"/><path class="cls-4" d="M286,286.27a16.49,16.49,0,0,0,19-21.75l-18.37-50.77a16.51,16.51,0,0,0-15-10.88,16.39,16.39,0,0,0-4.57-.65H233.85a16.53,16.53,0,0,0-4.95.75,16.53,16.53,0,0,0-14.13,12.34L201.42,268a16.51,16.51,0,0,0,12,20.07h0a16.44,16.44,0,0,0,7,.23V410.7a16.52,16.52,0,0,0,33,0V330.42h4.33l9.29,82a16.52,16.52,0,0,0,32.82-3.72Z"/></g><g class="cls-5"><polygon class="cls-4" points="115.09 445.27 99.91 445.27 99.91 430.48 88.77 430.48 88.77 469.85 99.91 469.85 99.91 454.49 115.09 454.49 115.09 469.85 126.23 469.85 126.23 430.48 115.09 430.48 115.09 445.27"/><polygon class="cls-4" points="145.03 454.04 162.53 454.04 162.53 445.72 145.03 445.72 145.03 439.08 164.89 439.08 164.89 430.48 134.01 430.48 134.01 469.85 165.62 469.85 165.62 461.24 145.03 461.24 145.03 454.04"/><polygon class="cls-4" points="182.94 430.48 171.8 430.48 171.8 469.85 201.72 469.85 201.72 461.02 182.94 461.02 182.94 430.48"/><path class="cls-4" d="M228.45,449.26a7.65,7.65,0,0,1-5.21,1.52h-6.18V439.25h6.18a7.7,7.7,0,0,1,5.21,1.52,5.42,5.42,0,0,1,1.71,4.27A5.35,5.35,0,0,1,228.45,449.26Zm4.78-17a22.78,22.78,0,0,0-9.31-1.74h-18v39.37h11.14V459.56h6.86a22.44,22.44,0,0,0,9.31-1.78,13.86,13.86,0,0,0,6-5,13.69,13.69,0,0,0,2.14-7.71,14,14,0,0,0-2.14-7.79A13.6,13.6,0,0,0,233.23,432.22Z"/><polygon class="cls-4" points="259.45 439.31 271.55 439.31 271.55 469.85 282.68 469.85 282.68 439.31 294.72 439.31 294.72 430.48 259.45 430.48 259.45 439.31"/><polygon class="cls-4" points="325.11 445.27 309.92 445.27 309.92 430.48 298.78 430.48 298.78 469.85 309.92 469.85 309.92 454.49 325.11 454.49 325.11 469.85 336.24 469.85 336.24 430.48 325.11 430.48 325.11 445.27"/><polygon class="cls-4" points="355.24 454.04 372.73 454.04 372.73 445.72 355.24 445.72 355.24 439.08 375.09 439.08 375.09 430.48 344.21 430.48 344.21 469.85 375.82 469.85 375.82 461.24 355.24 461.24 355.24 454.04"/><polygon class="cls-4" points="424.35 451.46 406.97 430.48 397.8 430.48 397.8 469.85 408.71 469.85 408.71 448.87 426.09 469.85 435.26 469.85 435.26 430.48 424.35 430.48 424.35 451.46"/><path class="cls-4" d="M474.29,431.32v-.25l.18.25Zm39.8-.84h-12l-7.74,11.38-7.9-11.38h-43v39.37H486l8-12.18,8.16,12.18H515l-14.6-20.35,13-18v7.82h12.09v30.54h11.14V439.31h12v-8.83Z"/><circle class="cls-4" cx="372.15" cy="185.41" r="29.13"/><path class="cls-4" d="M404.25,427.12h0a15.08,15.08,0,0,0,13.27-16.67l-8.92-78.67,14.81-7.12a2.8,2.8,0,0,0,1.32-3.74l-16.67-34.7a13,13,0,0,0,9.51-5.89l13.31-20.65a14.66,14.66,0,0,0-5.05-20l-21.67-11.13a13,13,0,0,0-4-1.29,9.76,9.76,0,0,0-6.72-2.67H367.13a89.51,89.51,0,0,1-28.25-4.42L310.7,205.68a15.07,15.07,0,0,0-20.29,6.51h0a15.08,15.08,0,0,0,6.52,20.29L345,257.19v17.1l-15.57,53.32a2.8,2.8,0,0,0,1.91,3.48l13.66,4v77.07a15.07,15.07,0,0,0,30.13,0V339.07h4l8.47,74.77A15.07,15.07,0,0,0,404.25,427.12Z"/><circle class="cls-4" cx="249.26" cy="161.95" r="31.93"/><path class="cls-4" d="M285.14,286.27a16.31,16.31,0,0,0,9.09-.6,16.52,16.52,0,0,0,9.92-21.15l-18.38-50.77a16.51,16.51,0,0,0-15-10.88,16.37,16.37,0,0,0-4.56-.65H233a16.57,16.57,0,0,0-5,.75,16.51,16.51,0,0,0-14.12,12.34L200.56,268a16.52,16.52,0,0,0,12,20.07h0a16.45,16.45,0,0,0,7,.23V410.7a16.52,16.52,0,0,0,33,0V330.42h4.33l9.29,82A16.52,16.52,0,0,0,299,408.68Z"/></g><g class="cls-6"><polygon class="cls-4" points="114.19 445.27 99 445.27 99 430.48 87.87 430.48 87.87 469.85 99 469.85 99 454.49 114.19 454.49 114.19 469.85 125.33 469.85 125.33 430.48 114.19 430.48 114.19 445.27"/><polygon class="cls-4" points="144.08 454.04 161.57 454.04 161.57 445.72 144.08 445.72 144.08 439.08 163.94 439.08 163.94 430.48 133.06 430.48 133.06 469.85 164.67 469.85 164.67 461.24 144.08 461.24 144.08 454.04"/><polygon class="cls-4" points="181.99 430.48 170.85 430.48 170.85 469.85 200.77 469.85 200.77 461.02 181.99 461.02 181.99 430.48"/><path class="cls-4" d="M227.4,449.26a7.63,7.63,0,0,1-5.2,1.52H216V439.25h6.19a7.69,7.69,0,0,1,5.2,1.52,5.42,5.42,0,0,1,1.71,4.27A5.35,5.35,0,0,1,227.4,449.26Zm4.78-17a22.78,22.78,0,0,0-9.31-1.74h-18v39.37H216V459.56h6.86a22.44,22.44,0,0,0,9.31-1.78,14,14,0,0,0,6-5,13.76,13.76,0,0,0,2.13-7.71,14.06,14.06,0,0,0-2.13-7.79A13.68,13.68,0,0,0,232.18,432.22Z"/><polygon class="cls-4" points="258.12 439.31 270.21 439.31 270.21 469.85 281.35 469.85 281.35 439.31 293.38 439.31 293.38 430.48 258.12 430.48 258.12 439.31"/><polygon class="cls-4" points="323.72 445.27 308.54 445.27 308.54 430.48 297.4 430.48 297.4 469.85 308.54 469.85 308.54 454.49 323.72 454.49 323.72 469.85 334.86 469.85 334.86 430.48 323.72 430.48 323.72 445.27"/><polygon class="cls-4" points="353.9 454.04 371.39 454.04 371.39 445.72 353.9 445.72 353.9 439.08 373.75 439.08 373.75 430.48 342.88 430.48 342.88 469.85 374.49 469.85 374.49 461.24 353.9 461.24 353.9 454.04"/><polygon class="cls-4" points="422.73 451.46 405.35 430.48 396.18 430.48 396.18 469.85 407.09 469.85 407.09 448.87 424.47 469.85 433.64 469.85 433.64 430.48 422.73 430.48 422.73 451.46"/><path class="cls-4" d="M472.82,431.32v-.25l.18.25Zm39.8-.84h-12l-7.74,11.38-7.9-11.38h-43v39.37H484.5l8-12.18,8.16,12.18h12.83L498.91,449.5l13-18v7.82H524v30.54h11.13V439.31h12v-8.83Z"/><circle class="cls-4" cx="371.29" cy="185.41" r="29.13"/><path class="cls-4" d="M403.4,427.12h0a15.06,15.06,0,0,0,13.27-16.67l-8.91-78.67,14.81-7.12a2.81,2.81,0,0,0,1.31-3.74l-16.66-34.7a13,13,0,0,0,9.5-5.89L430,259.68a14.65,14.65,0,0,0-5.06-20l-21.66-11.13a13.2,13.2,0,0,0-4-1.29,9.8,9.8,0,0,0-6.73-2.67H366.27A89.51,89.51,0,0,1,338,220.16l-28.18-14.48a15.07,15.07,0,0,0-20.29,6.51h0a15.08,15.08,0,0,0,6.52,20.29l48.1,24.71v17.1L328.6,327.61a2.8,2.8,0,0,0,1.91,3.48l13.66,4v77.07a15.07,15.07,0,0,0,30.13,0V339.07h4l8.47,74.77A15.08,15.08,0,0,0,403.4,427.12Z"/><circle class="cls-4" cx="248.4" cy="161.95" r="31.93"/><path class="cls-4" d="M284.28,286.27a16.35,16.35,0,0,0,9.1-.6,16.52,16.52,0,0,0,9.91-21.15l-18.38-50.77a16.51,16.51,0,0,0-15-10.88,16.37,16.37,0,0,0-4.56-.65H232.14a16.48,16.48,0,0,0-4.95.75,16.52,16.52,0,0,0-14.13,12.34L199.71,268a16.52,16.52,0,0,0,11.95,20.07h0a16.49,16.49,0,0,0,7,.23V410.7a16.52,16.52,0,0,0,33,0V330.42H256l9.29,82a16.52,16.52,0,0,0,32.82-3.72Z"/></g><g class="cls-7"><polygon class="cls-4" points="113.28 445.27 98.1 445.27 98.1 430.48 86.96 430.48 86.96 469.85 98.1 469.85 98.1 454.49 113.28 454.49 113.28 469.85 124.42 469.85 124.42 430.48 113.28 430.48 113.28 445.27"/><polygon class="cls-4" points="143.13 454.04 160.62 454.04 160.62 445.72 143.13 445.72 143.13 439.08 162.98 439.08 162.98 430.48 132.11 430.48 132.11 469.85 163.71 469.85 163.71 461.24 143.13 461.24 143.13 454.04"/><polygon class="cls-4" points="181.03 430.48 169.9 430.48 169.9 469.85 199.82 469.85 199.82 461.02 181.03 461.02 181.03 430.48"/><path class="cls-4" d="M226.35,449.26a7.62,7.62,0,0,1-5.2,1.52H215V439.25h6.19a7.67,7.67,0,0,1,5.2,1.52,5.42,5.42,0,0,1,1.72,4.27A5.36,5.36,0,0,1,226.35,449.26Zm4.78-17a22.75,22.75,0,0,0-9.31-1.74h-18v39.37H215V459.56h6.86a22.41,22.41,0,0,0,9.31-1.78A13.26,13.26,0,0,0,239.31,445a14.06,14.06,0,0,0-2.13-7.79A13.63,13.63,0,0,0,231.13,432.22Z"/><polygon class="cls-4" points="256.79 439.31 268.88 439.31 268.88 469.85 280.01 469.85 280.01 439.31 292.05 439.31 292.05 430.48 256.79 430.48 256.79 439.31"/><polygon class="cls-4" points="322.34 445.27 307.16 445.27 307.16 430.48 296.02 430.48 296.02 469.85 307.16 469.85 307.16 454.49 322.34 454.49 322.34 469.85 333.48 469.85 333.48 430.48 322.34 430.48 322.34 445.27"/><polygon class="cls-4" points="352.57 454.04 370.06 454.04 370.06 445.72 352.57 445.72 352.57 439.08 372.42 439.08 372.42 430.48 341.54 430.48 341.54 469.85 373.15 469.85 373.15 461.24 352.57 461.24 352.57 454.04"/><polygon class="cls-4" points="421.11 451.46 403.73 430.48 394.56 430.48 394.56 469.85 405.47 469.85 405.47 448.87 422.85 469.85 432.02 469.85 432.02 430.48 421.11 430.48 421.11 451.46"/><path class="cls-4" d="M471.34,431.32v-.25l.18.25Zm39.8-.84h-12l-7.74,11.38-7.89-11.38h-43v39.37H483l8-12.18,8.17,12.18H512l-14.6-20.35,13-18v7.82H522.5v30.54h11.14V439.31h12v-8.83Z"/><circle class="cls-4" cx="370.43" cy="185.41" r="29.13"/><path class="cls-4" d="M402.54,427.12h0a15.06,15.06,0,0,0,13.27-16.67l-8.91-78.67,14.81-7.12a2.79,2.79,0,0,0,1.31-3.74l-16.66-34.7a13,13,0,0,0,9.5-5.89l13.32-20.65a14.65,14.65,0,0,0-5.06-20l-21.66-11.13a13.2,13.2,0,0,0-4-1.29,9.8,9.8,0,0,0-6.72-2.67H365.41a89.56,89.56,0,0,1-28.25-4.42L309,205.68a15.06,15.06,0,0,0-20.28,6.51h0a15.07,15.07,0,0,0,6.51,20.29l48.11,24.71v17.1l-15.58,53.32a2.81,2.81,0,0,0,1.91,3.48l13.67,4v77.07a15.07,15.07,0,0,0,30.13,0V339.07h3.95l8.48,74.77A15.06,15.06,0,0,0,402.54,427.12Z"/><circle class="cls-4" cx="247.54" cy="161.95" r="31.93"/><path class="cls-4" d="M283.42,286.27a16.35,16.35,0,0,0,9.1-.6,16.51,16.51,0,0,0,9.91-21.15l-18.37-50.77a16.53,16.53,0,0,0-15-10.88,16.32,16.32,0,0,0-4.56-.65H231.28a16.53,16.53,0,0,0-4.95.75,16.52,16.52,0,0,0-14.13,12.34L198.85,268a16.52,16.52,0,0,0,12,20.07h0a16.49,16.49,0,0,0,7,.23V410.7a16.52,16.52,0,0,0,33,0V330.42h4.34l9.29,82a16.52,16.52,0,0,0,32.82-3.72Z"/></g><g class="cls-8"><polygon class="cls-4" points="112.38 445.27 97.19 445.27 97.19 430.48 86.06 430.48 86.06 469.85 97.19 469.85 97.19 454.49 112.38 454.49 112.38 469.85 123.52 469.85 123.52 430.48 112.38 430.48 112.38 445.27"/><polygon class="cls-4" points="142.18 454.04 159.67 454.04 159.67 445.72 142.18 445.72 142.18 439.08 162.03 439.08 162.03 430.48 131.15 430.48 131.15 469.85 162.76 469.85 162.76 461.24 142.18 461.24 142.18 454.04"/><polygon class="cls-4" points="180.08 430.48 168.95 430.48 168.95 469.85 198.87 469.85 198.87 461.02 180.08 461.02 180.08 430.48"/><path class="cls-4" d="M225.3,449.26a7.62,7.62,0,0,1-5.2,1.52h-6.19V439.25h6.19a7.67,7.67,0,0,1,5.2,1.52A5.39,5.39,0,0,1,227,445,5.32,5.32,0,0,1,225.3,449.26Zm4.78-17a22.7,22.7,0,0,0-9.3-1.74h-18v39.37h11.13V459.56h6.87a22.36,22.36,0,0,0,9.3-1.78A13.29,13.29,0,0,0,238.27,445a14.06,14.06,0,0,0-2.14-7.79A13.63,13.63,0,0,0,230.08,432.22Z"/><polygon class="cls-4" points="255.45 439.31 267.55 439.31 267.55 469.85 278.68 469.85 278.68 439.31 290.72 439.31 290.72 430.48 255.45 430.48 255.45 439.31"/><polygon class="cls-4" points="320.96 445.27 305.78 445.27 305.78 430.48 294.64 430.48 294.64 469.85 305.78 469.85 305.78 454.49 320.96 454.49 320.96 469.85 332.1 469.85 332.1 430.48 320.96 430.48 320.96 445.27"/><polygon class="cls-4" points="351.24 454.04 368.73 454.04 368.73 445.72 351.24 445.72 351.24 439.08 371.09 439.08 371.09 430.48 340.21 430.48 340.21 469.85 371.82 469.85 371.82 461.24 351.24 461.24 351.24 454.04"/><polygon class="cls-4" points="419.49 451.46 402.11 430.48 392.94 430.48 392.94 469.85 403.85 469.85 403.85 448.87 421.23 469.85 430.4 469.85 430.4 430.48 419.49 430.48 419.49 451.46"/><path class="cls-4" d="M469.87,431.32v-.25l.17.25Zm39.79-.84h-12l-7.74,11.38L482,430.48H439v39.37h42.55l8-12.18,8.16,12.18h12.82L496,449.5l13-18v7.82H521v30.54h11.13V439.31h12v-8.83Z"/><circle class="cls-4" cx="369.58" cy="185.41" r="29.13"/><path class="cls-4" d="M401.68,427.12h0A15.08,15.08,0,0,0,415,410.45L406,331.78l14.81-7.12a2.8,2.8,0,0,0,1.32-3.74l-16.67-34.7a13,13,0,0,0,9.51-5.89l13.31-20.65a14.65,14.65,0,0,0-5.06-20L401.6,228.54a13.12,13.12,0,0,0-4-1.29,9.8,9.8,0,0,0-6.72-2.67H364.56a89.51,89.51,0,0,1-28.25-4.42l-28.19-14.48a15.06,15.06,0,0,0-20.28,6.51h0a15.08,15.08,0,0,0,6.52,20.29l48.1,24.71v17.1l-15.57,53.32a2.79,2.79,0,0,0,1.9,3.48l13.67,4v77.07a15.07,15.07,0,0,0,30.13,0V339.07h4L385,413.84A15.07,15.07,0,0,0,401.68,427.12Z"/><circle class="cls-4" cx="246.68" cy="161.95" r="31.93"/><path class="cls-4" d="M282.56,286.27a16.49,16.49,0,0,0,19-21.75L283.2,213.75a16.51,16.51,0,0,0-15-10.88,16.37,16.37,0,0,0-4.56-.65H230.42a16.57,16.57,0,0,0-4.95.75,16.53,16.53,0,0,0-14.13,12.34L198,268a16.51,16.51,0,0,0,12,20.07h0a16.44,16.44,0,0,0,7,.23V410.7a16.52,16.52,0,0,0,33,0V330.42h4.33l9.29,82a16.52,16.52,0,0,0,32.83-3.72Z"/></g><g class="cls-9"><polygon class="cls-4" points="111.48 445.27 96.29 445.27 96.29 430.48 85.15 430.48 85.15 469.85 96.29 469.85 96.29 454.49 111.48 454.49 111.48 469.85 122.61 469.85 122.61 430.48 111.48 430.48 111.48 445.27"/><polygon class="cls-4" points="141.22 454.04 158.72 454.04 158.72 445.72 141.22 445.72 141.22 439.08 161.08 439.08 161.08 430.48 130.2 430.48 130.2 469.85 161.81 469.85 161.81 461.24 141.22 461.24 141.22 454.04"/><polygon class="cls-4" points="179.13 430.48 168 430.48 168 469.85 197.92 469.85 197.92 461.02 179.13 461.02 179.13 430.48"/><path class="cls-4" d="M224.26,449.26a7.65,7.65,0,0,1-5.21,1.52h-6.18V439.25h6.18a7.7,7.7,0,0,1,5.21,1.52A5.42,5.42,0,0,1,226,445,5.35,5.35,0,0,1,224.26,449.26Zm4.78-17a22.78,22.78,0,0,0-9.31-1.74h-18v39.37h11.14V459.56h6.86a22.44,22.44,0,0,0,9.31-1.78,13.86,13.86,0,0,0,6-5,13.69,13.69,0,0,0,2.14-7.71,14,14,0,0,0-2.14-7.79A13.6,13.6,0,0,0,229,432.22Z"/><polygon class="cls-4" points="254.12 439.31 266.21 439.31 266.21 469.85 277.35 469.85 277.35 439.31 289.38 439.31 289.38 430.48 254.12 430.48 254.12 439.31"/><polygon class="cls-4" points="319.58 445.27 304.4 445.27 304.4 430.48 293.26 430.48 293.26 469.85 304.4 469.85 304.4 454.49 319.58 454.49 319.58 469.85 330.72 469.85 330.72 430.48 319.58 430.48 319.58 445.27"/><polygon class="cls-4" points="349.9 454.04 367.39 454.04 367.39 445.72 349.9 445.72 349.9 439.08 369.75 439.08 369.75 430.48 338.88 430.48 338.88 469.85 370.49 469.85 370.49 461.24 349.9 461.24 349.9 454.04"/><polygon class="cls-4" points="417.87 451.46 400.49 430.48 391.32 430.48 391.32 469.85 402.23 469.85 402.23 448.87 419.61 469.85 428.78 469.85 428.78 430.48 417.87 430.48 417.87 451.46"/><path class="cls-4" d="M468.39,431.32v-.25l.18.25Zm39.8-.84h-12l-7.74,11.38-7.89-11.38h-43v39.37h42.56l8-12.18,8.16,12.18h12.83L494.48,449.5l13-18v7.82h12.09v30.54h11.13V439.31h12v-8.83Z"/><circle class="cls-4" cx="368.72" cy="185.41" r="29.13"/><path class="cls-4" d="M400.83,427.12h0a15.07,15.07,0,0,0,13.27-16.67l-8.92-78.67L420,324.66a2.8,2.8,0,0,0,1.32-3.74l-16.66-34.7a13,13,0,0,0,9.5-5.89l13.31-20.65a14.63,14.63,0,0,0-5-20l-21.67-11.13a13,13,0,0,0-4-1.29,9.76,9.76,0,0,0-6.72-2.67H363.7a89.51,89.51,0,0,1-28.25-4.42l-28.18-14.48A15.07,15.07,0,0,0,287,212.19h0a15.08,15.08,0,0,0,6.52,20.29l48.1,24.71v17.1L326,327.61a2.8,2.8,0,0,0,1.91,3.48l13.66,4v77.07a15.07,15.07,0,0,0,30.13,0V339.07h4l8.47,74.77A15.08,15.08,0,0,0,400.83,427.12Z"/><circle class="cls-4" cx="245.83" cy="161.95" r="31.93"/><path class="cls-4" d="M281.71,286.27a16.35,16.35,0,0,0,9.1-.6,16.52,16.52,0,0,0,9.91-21.15l-18.38-50.77a16.51,16.51,0,0,0-15-10.88,16.37,16.37,0,0,0-4.56-.65H229.57a16.48,16.48,0,0,0-4.95.75,16.52,16.52,0,0,0-14.13,12.34L197.13,268a16.52,16.52,0,0,0,12,20.07h0a16.49,16.49,0,0,0,7,.23V410.7a16.52,16.52,0,0,0,33,0V330.42h4.34l9.29,82a16.52,16.52,0,0,0,32.82-3.72Z"/></g><g class="cls-10"><polygon class="cls-4" points="110.57 445.27 95.39 445.27 95.39 430.48 84.25 430.48 84.25 469.85 95.39 469.85 95.39 454.49 110.57 454.49 110.57 469.85 121.71 469.85 121.71 430.48 110.57 430.48 110.57 445.27"/><polygon class="cls-4" points="140.27 454.04 157.76 454.04 157.76 445.72 140.27 445.72 140.27 439.08 160.13 439.08 160.13 430.48 129.25 430.48 129.25 469.85 160.86 469.85 160.86 461.24 140.27 461.24 140.27 454.04"/><polygon class="cls-4" points="178.18 430.48 167.04 430.48 167.04 469.85 196.96 469.85 196.96 461.02 178.18 461.02 178.18 430.48"/><path class="cls-4" d="M223.21,449.26a7.63,7.63,0,0,1-5.2,1.52h-6.19V439.25H218a7.69,7.69,0,0,1,5.2,1.52,5.42,5.42,0,0,1,1.71,4.27A5.35,5.35,0,0,1,223.21,449.26Zm4.78-17a22.78,22.78,0,0,0-9.31-1.74h-18v39.37h11.14V459.56h6.86a22.44,22.44,0,0,0,9.31-1.78,13.86,13.86,0,0,0,6-5,13.69,13.69,0,0,0,2.14-7.71,14,14,0,0,0-2.14-7.79A13.6,13.6,0,0,0,228,432.22Z"/><polygon class="cls-4" points="252.79 439.31 264.88 439.31 264.88 469.85 276.01 469.85 276.01 439.31 288.05 439.31 288.05 430.48 252.79 430.48 252.79 439.31"/><polygon class="cls-4" points="318.2 445.27 303.01 445.27 303.01 430.48 291.88 430.48 291.88 469.85 303.01 469.85 303.01 454.49 318.2 454.49 318.2 469.85 329.34 469.85 329.34 430.48 318.2 430.48 318.2 445.27"/><polygon class="cls-4" points="348.57 454.04 366.06 454.04 366.06 445.72 348.57 445.72 348.57 439.08 368.42 439.08 368.42 430.48 337.54 430.48 337.54 469.85 369.15 469.85 369.15 461.24 348.57 461.24 348.57 454.04"/><polygon class="cls-4" points="416.25 451.46 398.87 430.48 389.7 430.48 389.7 469.85 400.62 469.85 400.62 448.87 417.99 469.85 427.16 469.85 427.16 430.48 416.25 430.48 416.25 451.46"/><path class="cls-4" d="M466.91,431.32v-.25l.18.25Zm39.8-.84h-12l-7.74,11.38L479,430.48H436v39.37h42.55l8-12.18,8.17,12.18h12.82L493,449.5l13-18v7.82h12.09v30.54h11.14V439.31h12v-8.83Z"/><circle class="cls-4" cx="367.86" cy="185.41" r="29.13"/><path class="cls-4" d="M400,427.12h0a15.06,15.06,0,0,0,13.27-16.67l-8.91-78.67,14.81-7.12a2.8,2.8,0,0,0,1.31-3.74l-16.66-34.7a13,13,0,0,0,9.5-5.89l13.32-20.65a14.65,14.65,0,0,0-5.06-20l-21.66-11.13a13.2,13.2,0,0,0-4-1.29,9.8,9.8,0,0,0-6.72-2.67H362.84a89.51,89.51,0,0,1-28.25-4.42l-28.18-14.48a15.06,15.06,0,0,0-20.28,6.51h0a15.06,15.06,0,0,0,6.51,20.29l48.11,24.71v17.1l-15.58,53.32a2.81,2.81,0,0,0,1.91,3.48l13.67,4v77.07a15.07,15.07,0,0,0,30.13,0V339.07h3.95l8.47,74.77A15.08,15.08,0,0,0,400,427.12Z"/><circle class="cls-4" cx="244.97" cy="161.95" r="31.93"/><path class="cls-4" d="M280.85,286.27a16.35,16.35,0,0,0,9.1-.6,16.51,16.51,0,0,0,9.91-21.15l-18.37-50.77a16.54,16.54,0,0,0-15-10.88,16.32,16.32,0,0,0-4.56-.65H228.71a16.48,16.48,0,0,0-5,.75,16.52,16.52,0,0,0-14.13,12.34L196.28,268a16.52,16.52,0,0,0,11.95,20.07h0a16.49,16.49,0,0,0,7,.23V410.7a16.52,16.52,0,0,0,33,0V330.42h4.34l9.29,82a16.52,16.52,0,0,0,32.82-3.72Z"/></g><g class="cls-11"><polygon class="cls-4" points="109.67 445.27 94.48 445.27 94.48 430.48 83.34 430.48 83.34 469.85 94.48 469.85 94.48 454.49 109.67 454.49 109.67 469.85 120.8 469.85 120.8 430.48 109.67 430.48 109.67 445.27"/><polygon class="cls-4" points="139.32 454.04 156.81 454.04 156.81 445.72 139.32 445.72 139.32 439.08 159.17 439.08 159.17 430.48 128.3 430.48 128.3 469.85 159.9 469.85 159.9 461.24 139.32 461.24 139.32 454.04"/><polygon class="cls-4" points="177.23 430.48 166.09 430.48 166.09 469.85 196.01 469.85 196.01 461.02 177.23 461.02 177.23 430.48"/><path class="cls-4" d="M222.16,449.26a7.62,7.62,0,0,1-5.2,1.52h-6.19V439.25H217a7.67,7.67,0,0,1,5.2,1.52,5.42,5.42,0,0,1,1.72,4.27A5.36,5.36,0,0,1,222.16,449.26Zm4.78-17a22.78,22.78,0,0,0-9.31-1.74h-18v39.37h11.13V459.56h6.86a22.44,22.44,0,0,0,9.31-1.78A13.26,13.26,0,0,0,235.12,445a14.06,14.06,0,0,0-2.13-7.79A13.63,13.63,0,0,0,226.94,432.22Z"/><polygon class="cls-4" points="251.45 439.31 263.55 439.31 263.55 469.85 274.68 469.85 274.68 439.31 286.72 439.31 286.72 430.48 251.45 430.48 251.45 439.31"/><polygon class="cls-4" points="316.82 445.27 301.63 445.27 301.63 430.48 290.5 430.48 290.5 469.85 301.63 469.85 301.63 454.49 316.82 454.49 316.82 469.85 327.96 469.85 327.96 430.48 316.82 430.48 316.82 445.27"/><polygon class="cls-4" points="347.24 454.04 364.73 454.04 364.73 445.72 347.24 445.72 347.24 439.08 367.09 439.08 367.09 430.48 336.21 430.48 336.21 469.85 367.82 469.85 367.82 461.24 347.24 461.24 347.24 454.04"/><polygon class="cls-4" points="414.63 451.46 397.25 430.48 388.08 430.48 388.08 469.85 399 469.85 399 448.87 416.38 469.85 425.54 469.85 425.54 430.48 414.63 430.48 414.63 451.46"/><path class="cls-4" d="M465.44,431.32v-.25l.18.25Zm39.8-.84h-12l-7.74,11.38-7.9-11.38h-43v39.37h42.55l8-12.18,8.16,12.18h12.82l-14.6-20.35,13-18v7.82h12.1v30.54h11.13V439.31h12v-8.83Z"/><circle class="cls-4" cx="367.01" cy="185.41" r="29.13"/><path class="cls-4" d="M399.11,427.12h0a15.06,15.06,0,0,0,13.27-16.67l-8.91-78.67,14.81-7.12a2.8,2.8,0,0,0,1.32-3.74l-16.67-34.7a13,13,0,0,0,9.51-5.89l13.31-20.65a14.65,14.65,0,0,0-5.06-20L399,228.54a13.12,13.12,0,0,0-4-1.29,9.8,9.8,0,0,0-6.72-2.67H362a89.56,89.56,0,0,1-28.25-4.42l-28.18-14.48a15.06,15.06,0,0,0-20.28,6.51h0a15.07,15.07,0,0,0,6.51,20.29l48.11,24.71v17.1l-15.58,53.32a2.81,2.81,0,0,0,1.91,3.48l13.67,4v77.07a15.07,15.07,0,0,0,30.13,0V339.07h4l8.48,74.77A15.06,15.06,0,0,0,399.11,427.12Z"/><circle class="cls-4" cx="244.11" cy="161.95" r="31.93"/><path class="cls-4" d="M280,286.27a16.49,16.49,0,0,0,19-21.75l-18.37-50.77a16.51,16.51,0,0,0-15-10.88,16.39,16.39,0,0,0-4.57-.65H227.85a16.53,16.53,0,0,0-4.95.75,16.53,16.53,0,0,0-14.13,12.34L195.42,268a16.51,16.51,0,0,0,12,20.07h0a16.44,16.44,0,0,0,7,.23V410.7a16.52,16.52,0,0,0,33,0V330.42h4.33l9.29,82a16.52,16.52,0,0,0,32.82-3.72Z"/></g><g class="cls-12"><polygon class="cls-4" points="108.76 445.27 93.58 445.27 93.58 430.48 82.44 430.48 82.44 469.85 93.58 469.85 93.58 454.49 108.76 454.49 108.76 469.85 119.9 469.85 119.9 430.48 108.76 430.48 108.76 445.27"/><polygon class="cls-4" points="138.37 454.04 155.86 454.04 155.86 445.72 138.37 445.72 138.37 439.08 158.22 439.08 158.22 430.48 127.34 430.48 127.34 469.85 158.95 469.85 158.95 461.24 138.37 461.24 138.37 454.04"/><polygon class="cls-4" points="176.27 430.48 165.14 430.48 165.14 469.85 195.06 469.85 195.06 461.02 176.27 461.02 176.27 430.48"/><path class="cls-4" d="M221.11,449.26a7.62,7.62,0,0,1-5.2,1.52h-6.19V439.25h6.19a7.67,7.67,0,0,1,5.2,1.52,5.39,5.39,0,0,1,1.72,4.27A5.32,5.32,0,0,1,221.11,449.26Zm4.78-17a22.73,22.73,0,0,0-9.3-1.74h-18v39.37h11.13V459.56h6.87a22.39,22.39,0,0,0,9.3-1.78A13.29,13.29,0,0,0,234.08,445a14.06,14.06,0,0,0-2.14-7.79A13.63,13.63,0,0,0,225.89,432.22Z"/><polygon class="cls-4" points="250.12 439.31 262.21 439.31 262.21 469.85 273.35 469.85 273.35 439.31 285.38 439.31 285.38 430.48 250.12 430.48 250.12 439.31"/><polygon class="cls-4" points="315.44 445.27 300.25 445.27 300.25 430.48 289.12 430.48 289.12 469.85 300.25 469.85 300.25 454.49 315.44 454.49 315.44 469.85 326.57 469.85 326.57 430.48 315.44 430.48 315.44 445.27"/><polygon class="cls-4" points="345.9 454.04 363.39 454.04 363.39 445.72 345.9 445.72 345.9 439.08 365.75 439.08 365.75 430.48 334.88 430.48 334.88 469.85 366.49 469.85 366.49 461.24 345.9 461.24 345.9 454.04"/><polygon class="cls-4" points="413.01 451.46 395.63 430.48 386.47 430.48 386.47 469.85 397.38 469.85 397.38 448.87 414.76 469.85 423.92 469.85 423.92 430.48 413.01 430.48 413.01 451.46"/><path class="cls-4" d="M464,431.32v-.25l.18.25Zm39.8-.84h-12L484,441.86l-7.89-11.38h-43v39.37h42.56l8-12.18,8.17,12.18h12.82l-14.6-20.35,13-18v7.82h12.09v30.54h11.14V439.31h12v-8.83Z"/><circle class="cls-4" cx="366.15" cy="185.41" r="29.13"/><path class="cls-4" d="M398.25,427.12h0a15.08,15.08,0,0,0,13.27-16.67l-8.92-78.67,14.81-7.12a2.8,2.8,0,0,0,1.32-3.74l-16.67-34.7a13,13,0,0,0,9.51-5.89l13.31-20.65a14.66,14.66,0,0,0-5.05-20l-21.67-11.13a13,13,0,0,0-4-1.29,9.76,9.76,0,0,0-6.72-2.67H361.13a89.51,89.51,0,0,1-28.25-4.42L304.7,205.68a15.07,15.07,0,0,0-20.29,6.51h0a15.08,15.08,0,0,0,6.52,20.29L339,257.19v17.1l-15.57,53.32a2.8,2.8,0,0,0,1.91,3.48l13.66,4v77.07a15.07,15.07,0,0,0,30.13,0V339.07h4l8.47,74.77A15.07,15.07,0,0,0,398.25,427.12Z"/><circle class="cls-4" cx="243.26" cy="161.95" r="31.93"/><path class="cls-4" d="M279.14,286.27a16.31,16.31,0,0,0,9.09-.6,16.52,16.52,0,0,0,9.92-21.15l-18.38-50.77a16.51,16.51,0,0,0-15-10.88,16.37,16.37,0,0,0-4.56-.65H227a16.57,16.57,0,0,0-5,.75,16.51,16.51,0,0,0-14.12,12.34L194.56,268a16.52,16.52,0,0,0,12,20.07h0a16.45,16.45,0,0,0,7,.23V410.7a16.52,16.52,0,0,0,33,0V330.42h4.33l9.29,82A16.52,16.52,0,0,0,293,408.68Z"/></g><g class="cls-13"><polygon class="cls-4" points="107.86 445.27 92.67 445.27 92.67 430.48 81.53 430.48 81.53 469.85 92.67 469.85 92.67 454.49 107.86 454.49 107.86 469.85 118.99 469.85 118.99 430.48 107.86 430.48 107.86 445.27"/><polygon class="cls-4" points="137.41 454.04 154.91 454.04 154.91 445.72 137.41 445.72 137.41 439.08 157.27 439.08 157.27 430.48 126.39 430.48 126.39 469.85 158 469.85 158 461.24 137.41 461.24 137.41 454.04"/><polygon class="cls-4" points="175.32 430.48 164.19 430.48 164.19 469.85 194.11 469.85 194.11 461.02 175.32 461.02 175.32 430.48"/><path class="cls-4" d="M220.06,449.26c-1.14,1-2.87,1.52-5.2,1.52h-6.18V439.25h6.18a7.65,7.65,0,0,1,5.2,1.52,5.39,5.39,0,0,1,1.72,4.27A5.32,5.32,0,0,1,220.06,449.26Zm4.79-17a22.78,22.78,0,0,0-9.31-1.74h-18v39.37h11.14V459.56h6.86a22.44,22.44,0,0,0,9.31-1.78,13.86,13.86,0,0,0,6-5A13.69,13.69,0,0,0,233,445a14,14,0,0,0-2.14-7.79A13.6,13.6,0,0,0,224.85,432.22Z"/><polygon class="cls-4" points="248.79 439.31 260.88 439.31 260.88 469.85 272.01 469.85 272.01 439.31 284.05 439.31 284.05 430.48 248.79 430.48 248.79 439.31"/><polygon class="cls-4" points="314.06 445.27 298.87 445.27 298.87 430.48 287.74 430.48 287.74 469.85 298.87 469.85 298.87 454.49 314.06 454.49 314.06 469.85 325.19 469.85 325.19 430.48 314.06 430.48 314.06 445.27"/><polygon class="cls-4" points="344.57 454.04 362.06 454.04 362.06 445.72 344.57 445.72 344.57 439.08 364.42 439.08 364.42 430.48 333.54 430.48 333.54 469.85 365.15 469.85 365.15 461.24 344.57 461.24 344.57 454.04"/><polygon class="cls-4" points="411.39 451.46 394.01 430.48 384.85 430.48 384.85 469.85 395.76 469.85 395.76 448.87 413.14 469.85 422.31 469.85 422.31 430.48 411.39 430.48 411.39 451.46"/><path class="cls-4" d="M462.49,431.32v-.25l.17.25Zm39.79-.84h-12l-7.74,11.38-7.9-11.38h-43v39.37h42.55l8-12.18,8.16,12.18h12.82l-14.6-20.35,13-18v7.82h12.09v30.54h11.14V439.31h12v-8.83Z"/><circle class="cls-4" cx="365.29" cy="185.41" r="29.13"/><path class="cls-4" d="M397.4,427.12h0a15.06,15.06,0,0,0,13.27-16.67l-8.91-78.67,14.81-7.12a2.81,2.81,0,0,0,1.31-3.74l-16.66-34.7a13,13,0,0,0,9.5-5.89L424,259.68a14.65,14.65,0,0,0-5.06-20l-21.66-11.13a13.2,13.2,0,0,0-4-1.29,9.8,9.8,0,0,0-6.73-2.67H360.27A89.51,89.51,0,0,1,332,220.16l-28.18-14.48a15.07,15.07,0,0,0-20.29,6.51h0a15.08,15.08,0,0,0,6.52,20.29l48.1,24.71v17.1L322.6,327.61a2.8,2.8,0,0,0,1.91,3.48l13.66,4v77.07a15.07,15.07,0,0,0,30.13,0V339.07h4l8.47,74.77A15.08,15.08,0,0,0,397.4,427.12Z"/><circle class="cls-4" cx="242.4" cy="161.95" r="31.93"/><path class="cls-4" d="M278.28,286.27a16.35,16.35,0,0,0,9.1-.6,16.52,16.52,0,0,0,9.91-21.15l-18.38-50.77a16.51,16.51,0,0,0-15-10.88,16.37,16.37,0,0,0-4.56-.65H226.14a16.48,16.48,0,0,0-4.95.75,16.52,16.52,0,0,0-14.13,12.34L193.71,268a16.52,16.52,0,0,0,11.95,20.07h0a16.49,16.49,0,0,0,7,.23V410.7a16.52,16.52,0,0,0,33,0V330.42H250l9.29,82a16.52,16.52,0,0,0,32.82-3.72Z"/></g><g class="cls-14"><polygon class="cls-4" points="106.95 445.27 91.77 445.27 91.77 430.48 80.63 430.48 80.63 469.85 91.77 469.85 91.77 454.49 106.95 454.49 106.95 469.85 118.09 469.85 118.09 430.48 106.95 430.48 106.95 445.27"/><polygon class="cls-4" points="136.46 454.04 153.95 454.04 153.95 445.72 136.46 445.72 136.46 439.08 156.32 439.08 156.32 430.48 125.44 430.48 125.44 469.85 157.05 469.85 157.05 461.24 136.46 461.24 136.46 454.04"/><polygon class="cls-4" points="174.37 430.48 163.23 430.48 163.23 469.85 193.15 469.85 193.15 461.02 174.37 461.02 174.37 430.48"/><path class="cls-4" d="M219,449.26a7.63,7.63,0,0,1-5.2,1.52h-6.19V439.25h6.19a7.69,7.69,0,0,1,5.2,1.52,5.42,5.42,0,0,1,1.71,4.27A5.35,5.35,0,0,1,219,449.26Zm4.78-17a22.78,22.78,0,0,0-9.31-1.74h-18v39.37h11.14V459.56h6.86a22.44,22.44,0,0,0,9.31-1.78,13.86,13.86,0,0,0,6-5A13.69,13.69,0,0,0,232,445a14,14,0,0,0-2.14-7.79A13.6,13.6,0,0,0,223.8,432.22Z"/><polygon class="cls-4" points="247.45 439.31 259.55 439.31 259.55 469.85 270.68 469.85 270.68 439.31 282.72 439.31 282.72 430.48 247.45 430.48 247.45 439.31"/><polygon class="cls-4" points="312.68 445.27 297.49 445.27 297.49 430.48 286.36 430.48 286.36 469.85 297.49 469.85 297.49 454.49 312.68 454.49 312.68 469.85 323.81 469.85 323.81 430.48 312.68 430.48 312.68 445.27"/><polygon class="cls-4" points="343.24 454.04 360.73 454.04 360.73 445.72 343.24 445.72 343.24 439.08 363.09 439.08 363.09 430.48 332.21 430.48 332.21 469.85 363.82 469.85 363.82 461.24 343.24 461.24 343.24 454.04"/><polygon class="cls-4" points="409.77 451.46 392.4 430.48 383.23 430.48 383.23 469.85 394.14 469.85 394.14 448.87 411.52 469.85 420.69 469.85 420.69 430.48 409.77 430.48 409.77 451.46"/><path class="cls-4" d="M461,431.32v-.25l.18.25Zm39.8-.84h-12L481,441.86l-7.9-11.38h-43v39.37h42.56l8-12.18,8.16,12.18h12.83L487.1,449.5l13-18v7.82h12.09v30.54H523.3V439.31h12v-8.83Z"/><circle class="cls-4" cx="364.43" cy="185.41" r="29.13"/><path class="cls-4" d="M396.54,427.12h0a15.06,15.06,0,0,0,13.27-16.67l-8.91-78.67,14.81-7.12a2.79,2.79,0,0,0,1.31-3.74l-16.66-34.7a13,13,0,0,0,9.5-5.89l13.32-20.65a14.65,14.65,0,0,0-5.06-20l-21.66-11.13a13.2,13.2,0,0,0-4-1.29,9.8,9.8,0,0,0-6.72-2.67H359.41a89.56,89.56,0,0,1-28.25-4.42L303,205.68a15.06,15.06,0,0,0-20.28,6.51h0a15.07,15.07,0,0,0,6.51,20.29l48.11,24.71v17.1l-15.58,53.32a2.81,2.81,0,0,0,1.91,3.48l13.67,4v77.07a15.07,15.07,0,0,0,30.13,0V339.07h3.95l8.48,74.77A15.06,15.06,0,0,0,396.54,427.12Z"/><circle class="cls-4" cx="241.54" cy="161.95" r="31.93"/><path class="cls-4" d="M277.42,286.27a16.35,16.35,0,0,0,9.1-.6,16.51,16.51,0,0,0,9.91-21.15l-18.37-50.77a16.53,16.53,0,0,0-15-10.88,16.32,16.32,0,0,0-4.56-.65H225.28a16.53,16.53,0,0,0-4.95.75,16.52,16.52,0,0,0-14.13,12.34L192.85,268a16.52,16.52,0,0,0,12,20.07h0a16.49,16.49,0,0,0,7,.23V410.7a16.52,16.52,0,0,0,33,0V330.42h4.34l9.29,82a16.52,16.52,0,0,0,32.82-3.72Z"/></g><g class="cls-15"><polygon class="cls-4" points="106.05 445.27 90.86 445.27 90.86 430.48 79.73 430.48 79.73 469.85 90.86 469.85 90.86 454.49 106.05 454.49 106.05 469.85 117.18 469.85 117.18 430.48 106.05 430.48 106.05 445.27"/><polygon class="cls-4" points="135.51 454.04 153 454.04 153 445.72 135.51 445.72 135.51 439.08 155.36 439.08 155.36 430.48 124.49 430.48 124.49 469.85 156.09 469.85 156.09 461.24 135.51 461.24 135.51 454.04"/><polygon class="cls-4" points="173.42 430.48 162.28 430.48 162.28 469.85 192.2 469.85 192.2 461.02 173.42 461.02 173.42 430.48"/><path class="cls-4" d="M218,449.26a7.62,7.62,0,0,1-5.2,1.52h-6.19V439.25h6.19a7.67,7.67,0,0,1,5.2,1.52,5.42,5.42,0,0,1,1.72,4.27A5.36,5.36,0,0,1,218,449.26Zm4.78-17a22.78,22.78,0,0,0-9.31-1.74h-18v39.37h11.13V459.56h6.86a22.44,22.44,0,0,0,9.31-1.78A13.26,13.26,0,0,0,230.93,445a14.06,14.06,0,0,0-2.13-7.79A13.63,13.63,0,0,0,222.75,432.22Z"/><polygon class="cls-4" points="246.12 439.31 258.21 439.31 258.21 469.85 269.35 469.85 269.35 439.31 281.38 439.31 281.38 430.48 246.12 430.48 246.12 439.31"/><polygon class="cls-4" points="311.3 445.27 296.11 445.27 296.11 430.48 284.97 430.48 284.97 469.85 296.11 469.85 296.11 454.49 311.3 454.49 311.3 469.85 322.43 469.85 322.43 430.48 311.3 430.48 311.3 445.27"/><polygon class="cls-4" points="341.9 454.04 359.39 454.04 359.39 445.72 341.9 445.72 341.9 439.08 361.75 439.08 361.75 430.48 330.88 430.48 330.88 469.85 362.49 469.85 362.49 461.24 341.9 461.24 341.9 454.04"/><polygon class="cls-4" points="408.15 451.46 390.78 430.48 381.61 430.48 381.61 469.85 392.52 469.85 392.52 448.87 409.9 469.85 419.07 469.85 419.07 430.48 408.15 430.48 408.15 451.46"/><path class="cls-4" d="M459.53,431.32v-.25l.18.25Zm39.8-.84h-12l-7.74,11.38-7.89-11.38h-43v39.37h42.56l8-12.18,8.17,12.18h12.82l-14.6-20.35,13-18v7.82h12.09v30.54h11.14V439.31h12v-8.83Z"/><circle class="cls-4" cx="363.58" cy="185.41" r="29.13"/><path class="cls-4" d="M395.68,427.12h0A15.08,15.08,0,0,0,409,410.45L400,331.78l14.81-7.12a2.8,2.8,0,0,0,1.32-3.74l-16.67-34.7a13,13,0,0,0,9.51-5.89l13.31-20.65a14.65,14.65,0,0,0-5.06-20L395.6,228.54a13.12,13.12,0,0,0-4-1.29,9.8,9.8,0,0,0-6.72-2.67H358.56a89.51,89.51,0,0,1-28.25-4.42l-28.19-14.48a15.06,15.06,0,0,0-20.28,6.51h0a15.08,15.08,0,0,0,6.52,20.29l48.1,24.71v17.1l-15.57,53.32a2.79,2.79,0,0,0,1.9,3.48l13.67,4v77.07a15.07,15.07,0,0,0,30.13,0V339.07h4L379,413.84A15.07,15.07,0,0,0,395.68,427.12Z"/><circle class="cls-4" cx="240.68" cy="161.95" r="31.93"/><path class="cls-4" d="M276.56,286.27a16.49,16.49,0,0,0,19-21.75L277.2,213.75a16.51,16.51,0,0,0-15-10.88,16.37,16.37,0,0,0-4.56-.65H224.42a16.57,16.57,0,0,0-4.95.75,16.53,16.53,0,0,0-14.13,12.34L192,268a16.51,16.51,0,0,0,12,20.07h0a16.44,16.44,0,0,0,7,.23V410.7a16.52,16.52,0,0,0,33,0V330.42h4.33l9.29,82a16.52,16.52,0,0,0,32.83-3.72Z"/></g><g class="cls-16"><polygon class="cls-4" points="105.14 445.27 89.96 445.27 89.96 430.48 78.82 430.48 78.82 469.85 89.96 469.85 89.96 454.49 105.14 454.49 105.14 469.85 116.28 469.85 116.28 430.48 105.14 430.48 105.14 445.27"/><polygon class="cls-4" points="134.56 454.04 152.05 454.04 152.05 445.72 134.56 445.72 134.56 439.08 154.41 439.08 154.41 430.48 123.53 430.48 123.53 469.85 155.14 469.85 155.14 461.24 134.56 461.24 134.56 454.04"/><polygon class="cls-4" points="172.46 430.48 161.33 430.48 161.33 469.85 191.25 469.85 191.25 461.02 172.46 461.02 172.46 430.48"/><path class="cls-4" d="M216.92,449.26a7.62,7.62,0,0,1-5.2,1.52h-6.19V439.25h6.19a7.67,7.67,0,0,1,5.2,1.52,5.39,5.39,0,0,1,1.72,4.27A5.32,5.32,0,0,1,216.92,449.26Zm4.78-17a22.75,22.75,0,0,0-9.31-1.74h-18v39.37h11.13V459.56h6.86a22.41,22.41,0,0,0,9.31-1.78A13.29,13.29,0,0,0,229.89,445a14.06,14.06,0,0,0-2.14-7.79A13.63,13.63,0,0,0,221.7,432.22Z"/><polygon class="cls-4" points="244.79 439.31 256.88 439.31 256.88 469.85 268.01 469.85 268.01 439.31 280.05 439.31 280.05 430.48 244.79 430.48 244.79 439.31"/><polygon class="cls-4" points="309.92 445.27 294.73 445.27 294.73 430.48 283.59 430.48 283.59 469.85 294.73 469.85 294.73 454.49 309.92 454.49 309.92 469.85 321.05 469.85 321.05 430.48 309.92 430.48 309.92 445.27"/><polygon class="cls-4" points="340.57 454.04 358.06 454.04 358.06 445.72 340.57 445.72 340.57 439.08 360.42 439.08 360.42 430.48 329.54 430.48 329.54 469.85 361.15 469.85 361.15 461.24 340.57 461.24 340.57 454.04"/><polygon class="cls-4" points="406.54 451.46 389.16 430.48 379.99 430.48 379.99 469.85 390.9 469.85 390.9 448.87 408.28 469.85 417.45 469.85 417.45 430.48 406.54 430.48 406.54 451.46"/><path class="cls-4" d="M458.06,431.32v-.25l.17.25Zm39.79-.84h-12l-7.74,11.38-7.9-11.38h-43v39.37h42.55l8-12.18,8.16,12.18h12.82l-14.6-20.35,13-18v7.82h12.1v30.54h11.13V439.31h12v-8.83Z"/><circle class="cls-4" cx="362.72" cy="185.41" r="29.13"/><path class="cls-4" d="M394.83,427.12h0a15.07,15.07,0,0,0,13.27-16.67l-8.92-78.67L414,324.66a2.8,2.8,0,0,0,1.32-3.74l-16.66-34.7a13,13,0,0,0,9.5-5.89l13.31-20.65a14.63,14.63,0,0,0-5-20l-21.67-11.13a13,13,0,0,0-4-1.29,9.76,9.76,0,0,0-6.72-2.67H357.7a89.51,89.51,0,0,1-28.25-4.42l-28.18-14.48A15.07,15.07,0,0,0,281,212.19h0a15.08,15.08,0,0,0,6.52,20.29l48.1,24.71v17.1L320,327.61a2.8,2.8,0,0,0,1.91,3.48l13.66,4v77.07a15.07,15.07,0,0,0,30.13,0V339.07h4l8.47,74.77A15.08,15.08,0,0,0,394.83,427.12Z"/><circle class="cls-4" cx="239.83" cy="161.95" r="31.93"/><path class="cls-4" d="M275.71,286.27a16.35,16.35,0,0,0,9.1-.6,16.52,16.52,0,0,0,9.91-21.15l-18.38-50.77a16.51,16.51,0,0,0-15-10.88,16.37,16.37,0,0,0-4.56-.65H223.57a16.48,16.48,0,0,0-4.95.75,16.52,16.52,0,0,0-14.13,12.34L191.13,268a16.52,16.52,0,0,0,12,20.07h0a16.49,16.49,0,0,0,7,.23V410.7a16.52,16.52,0,0,0,33,0V330.42h4.34l9.29,82a16.52,16.52,0,0,0,32.82-3.72Z"/></g><g class="cls-17"><polygon class="cls-4" points="104.24 445.27 89.05 445.27 89.05 430.48 77.92 430.48 77.92 469.85 89.05 469.85 89.05 454.49 104.24 454.49 104.24 469.85 115.37 469.85 115.37 430.48 104.24 430.48 104.24 445.27"/><polygon class="cls-4" points="133.6 454.04 151.1 454.04 151.1 445.72 133.6 445.72 133.6 439.08 153.46 439.08 153.46 430.48 122.58 430.48 122.58 469.85 154.19 469.85 154.19 461.24 133.6 461.24 133.6 454.04"/><polygon class="cls-4" points="171.51 430.48 160.38 430.48 160.38 469.85 190.3 469.85 190.3 461.02 171.51 461.02 171.51 430.48"/><path class="cls-4" d="M215.87,449.26c-1.14,1-2.87,1.52-5.2,1.52h-6.18V439.25h6.18a7.65,7.65,0,0,1,5.2,1.52,5.39,5.39,0,0,1,1.72,4.27A5.32,5.32,0,0,1,215.87,449.26Zm4.79-17a22.78,22.78,0,0,0-9.31-1.74h-18v39.37h11.14V459.56h6.86a22.44,22.44,0,0,0,9.31-1.78,13.86,13.86,0,0,0,6-5,13.69,13.69,0,0,0,2.14-7.71,14,14,0,0,0-2.14-7.79A13.6,13.6,0,0,0,220.66,432.22Z"/><polygon class="cls-4" points="243.45 439.31 255.54 439.31 255.54 469.85 266.68 469.85 266.68 439.31 278.72 439.31 278.72 430.48 243.45 430.48 243.45 439.31"/><polygon class="cls-4" points="308.53 445.27 293.35 445.27 293.35 430.48 282.21 430.48 282.21 469.85 293.35 469.85 293.35 454.49 308.53 454.49 308.53 469.85 319.67 469.85 319.67 430.48 308.53 430.48 308.53 445.27"/><polygon class="cls-4" points="339.24 454.04 356.73 454.04 356.73 445.72 339.24 445.72 339.24 439.08 359.09 439.08 359.09 430.48 328.21 430.48 328.21 469.85 359.82 469.85 359.82 461.24 339.24 461.24 339.24 454.04"/><polygon class="cls-4" points="404.92 451.46 387.54 430.48 378.37 430.48 378.37 469.85 389.28 469.85 389.28 448.87 406.66 469.85 415.83 469.85 415.83 430.48 404.92 430.48 404.92 451.46"/><path class="cls-4" d="M456.58,431.32v-.25l.18.25Zm39.8-.84h-12l-7.74,11.38-7.89-11.38h-43v39.37h42.56l8-12.18,8.16,12.18h12.83L482.67,449.5l13-18v7.82h12.09v30.54h11.14V439.31h12v-8.83Z"/><circle class="cls-4" cx="361.86" cy="185.41" r="29.13"/><path class="cls-4" d="M394,427.12h0a15.06,15.06,0,0,0,13.27-16.67l-8.91-78.67,14.81-7.12a2.8,2.8,0,0,0,1.31-3.74l-16.66-34.7a13,13,0,0,0,9.5-5.89l13.32-20.65a14.65,14.65,0,0,0-5.06-20l-21.66-11.13a13.2,13.2,0,0,0-4-1.29,9.8,9.8,0,0,0-6.72-2.67H356.84a89.51,89.51,0,0,1-28.25-4.42l-28.18-14.48a15.06,15.06,0,0,0-20.28,6.51h0a15.06,15.06,0,0,0,6.51,20.29l48.11,24.71v17.1l-15.58,53.32a2.81,2.81,0,0,0,1.91,3.48l13.67,4v77.07a15.07,15.07,0,0,0,30.13,0V339.07h3.95l8.47,74.77A15.08,15.08,0,0,0,394,427.12Z"/><circle class="cls-4" cx="238.97" cy="161.95" r="31.93"/><path class="cls-4" d="M274.85,286.27a16.35,16.35,0,0,0,9.1-.6,16.51,16.51,0,0,0,9.91-21.15l-18.37-50.77a16.54,16.54,0,0,0-15-10.88,16.32,16.32,0,0,0-4.56-.65H222.71a16.48,16.48,0,0,0-5,.75,16.52,16.52,0,0,0-14.13,12.34L190.28,268a16.52,16.52,0,0,0,11.95,20.07h0a16.49,16.49,0,0,0,7,.23V410.7a16.52,16.52,0,0,0,33,0V330.42h4.34l9.29,82a16.52,16.52,0,0,0,32.82-3.72Z"/></g><g class="cls-18"><polygon class="cls-4" points="103.33 445.27 88.15 445.27 88.15 430.48 77.01 430.48 77.01 469.85 88.15 469.85 88.15 454.49 103.33 454.49 103.33 469.85 114.47 469.85 114.47 430.48 103.33 430.48 103.33 445.27"/><polygon class="cls-4" points="132.65 454.04 150.14 454.04 150.14 445.72 132.65 445.72 132.65 439.08 152.51 439.08 152.51 430.48 121.63 430.48 121.63 469.85 153.24 469.85 153.24 461.24 132.65 461.24 132.65 454.04"/><polygon class="cls-4" points="170.56 430.48 159.42 430.48 159.42 469.85 189.34 469.85 189.34 461.02 170.56 461.02 170.56 430.48"/><path class="cls-4" d="M214.83,449.26a7.65,7.65,0,0,1-5.21,1.52h-6.18V439.25h6.18a7.7,7.7,0,0,1,5.21,1.52,5.42,5.42,0,0,1,1.71,4.27A5.35,5.35,0,0,1,214.83,449.26Zm4.78-17a22.78,22.78,0,0,0-9.31-1.74h-18v39.37h11.14V459.56h6.86a22.44,22.44,0,0,0,9.31-1.78,13.86,13.86,0,0,0,6-5,13.69,13.69,0,0,0,2.14-7.71,14,14,0,0,0-2.14-7.79A13.6,13.6,0,0,0,219.61,432.22Z"/><polygon class="cls-4" points="242.12 439.31 254.21 439.31 254.21 469.85 265.35 469.85 265.35 439.31 277.38 439.31 277.38 430.48 242.12 430.48 242.12 439.31"/><polygon class="cls-4" points="307.15 445.27 291.97 445.27 291.97 430.48 280.83 430.48 280.83 469.85 291.97 469.85 291.97 454.49 307.15 454.49 307.15 469.85 318.29 469.85 318.29 430.48 307.15 430.48 307.15 445.27"/><polygon class="cls-4" points="337.9 454.04 355.39 454.04 355.39 445.72 337.9 445.72 337.9 439.08 357.75 439.08 357.75 430.48 326.88 430.48 326.88 469.85 358.49 469.85 358.49 461.24 337.9 461.24 337.9 454.04"/><polygon class="cls-4" points="403.3 451.46 385.92 430.48 376.75 430.48 376.75 469.85 387.66 469.85 387.66 448.87 405.04 469.85 414.21 469.85 414.21 430.48 403.3 430.48 403.3 451.46"/><path class="cls-4" d="M455.1,431.32v-.25l.18.25Zm39.8-.84h-12l-7.74,11.38-7.9-11.38h-43v39.37h42.55l8-12.18L483,469.85H495.8L481.2,449.5l13-18v7.82h12.09v30.54H517.4V439.31h12v-8.83Z"/><circle class="cls-4" cx="361.01" cy="185.41" r="29.13"/><path class="cls-4" d="M393.11,427.12h0a15.06,15.06,0,0,0,13.27-16.67l-8.91-78.67,14.81-7.12a2.8,2.8,0,0,0,1.32-3.74l-16.67-34.7a13,13,0,0,0,9.51-5.89l13.31-20.65a14.65,14.65,0,0,0-5.06-20L393,228.54a13.12,13.12,0,0,0-4-1.29,9.8,9.8,0,0,0-6.72-2.67H356a89.56,89.56,0,0,1-28.25-4.42l-28.18-14.48a15.06,15.06,0,0,0-20.28,6.51h0a15.07,15.07,0,0,0,6.51,20.29l48.11,24.71v17.1l-15.58,53.32a2.81,2.81,0,0,0,1.91,3.48l13.67,4v77.07a15.07,15.07,0,0,0,30.13,0V339.07h4l8.48,74.77A15.06,15.06,0,0,0,393.11,427.12Z"/><circle class="cls-4" cx="238.11" cy="161.95" r="31.93"/><path class="cls-4" d="M274,286.27a16.49,16.49,0,0,0,19-21.75l-18.37-50.77a16.51,16.51,0,0,0-15-10.88,16.39,16.39,0,0,0-4.57-.65H221.85a16.53,16.53,0,0,0-4.95.75,16.53,16.53,0,0,0-14.13,12.34L189.42,268a16.51,16.51,0,0,0,12,20.07h0a16.44,16.44,0,0,0,7,.23V410.7a16.52,16.52,0,0,0,33,0V330.42h4.33l9.29,82a16.52,16.52,0,0,0,32.82-3.72Z"/></g><g class="cls-19"><polygon class="cls-4" points="102.43 445.27 87.24 445.27 87.24 430.48 76.11 430.48 76.11 469.85 87.24 469.85 87.24 454.49 102.43 454.49 102.43 469.85 113.56 469.85 113.56 430.48 102.43 430.48 102.43 445.27"/><polygon class="cls-4" points="131.7 454.04 149.19 454.04 149.19 445.72 131.7 445.72 131.7 439.08 151.55 439.08 151.55 430.48 120.68 430.48 120.68 469.85 152.28 469.85 152.28 461.24 131.7 461.24 131.7 454.04"/><polygon class="cls-4" points="169.61 430.48 158.47 430.48 158.47 469.85 188.39 469.85 188.39 461.02 169.61 461.02 169.61 430.48"/><path class="cls-4" d="M213.78,449.26a7.62,7.62,0,0,1-5.2,1.52h-6.19V439.25h6.19a7.67,7.67,0,0,1,5.2,1.52,5.42,5.42,0,0,1,1.71,4.27A5.35,5.35,0,0,1,213.78,449.26Zm4.78-17a22.78,22.78,0,0,0-9.31-1.74h-18v39.37h11.14V459.56h6.86a22.44,22.44,0,0,0,9.31-1.78A13.26,13.26,0,0,0,226.74,445a14.06,14.06,0,0,0-2.13-7.79A13.63,13.63,0,0,0,218.56,432.22Z"/><polygon class="cls-4" points="240.79 439.31 252.88 439.31 252.88 469.85 264.01 469.85 264.01 439.31 276.05 439.31 276.05 430.48 240.79 430.48 240.79 439.31"/><polygon class="cls-4" points="305.77 445.27 290.59 445.27 290.59 430.48 279.45 430.48 279.45 469.85 290.59 469.85 290.59 454.49 305.77 454.49 305.77 469.85 316.91 469.85 316.91 430.48 305.77 430.48 305.77 445.27"/><polygon class="cls-4" points="336.57 454.04 354.06 454.04 354.06 445.72 336.57 445.72 336.57 439.08 356.42 439.08 356.42 430.48 325.54 430.48 325.54 469.85 357.15 469.85 357.15 461.24 336.57 461.24 336.57 454.04"/><polygon class="cls-4" points="401.68 451.46 384.3 430.48 375.13 430.48 375.13 469.85 386.04 469.85 386.04 448.87 403.42 469.85 412.59 469.85 412.59 430.48 401.68 430.48 401.68 451.46"/><path class="cls-4" d="M453.63,431.32v-.25l.18.25Zm39.8-.84h-12l-7.74,11.38-7.9-11.38h-43v39.37H465.3l8-12.18,8.16,12.18h12.83L479.72,449.5l13-18v7.82h12.1v30.54h11.13V439.31h12v-8.83Z"/><circle class="cls-4" cx="360.15" cy="185.41" r="29.13"/><path class="cls-4" d="M392.25,427.12h0a15.08,15.08,0,0,0,13.27-16.67l-8.92-78.67,14.81-7.12a2.8,2.8,0,0,0,1.32-3.74l-16.67-34.7a13,13,0,0,0,9.51-5.89l13.31-20.65a14.66,14.66,0,0,0-5.05-20l-21.67-11.13a13,13,0,0,0-4-1.29,9.76,9.76,0,0,0-6.72-2.67H355.13a89.51,89.51,0,0,1-28.25-4.42L298.7,205.68a15.07,15.07,0,0,0-20.29,6.51h0a15.08,15.08,0,0,0,6.52,20.29L333,257.19v17.1l-15.57,53.32a2.8,2.8,0,0,0,1.91,3.48l13.66,4v77.07a15.07,15.07,0,0,0,30.13,0V339.07h4l8.47,74.77A15.07,15.07,0,0,0,392.25,427.12Z"/><circle class="cls-4" cx="237.26" cy="161.95" r="31.93"/><path class="cls-4" d="M273.14,286.27a16.31,16.31,0,0,0,9.09-.6,16.52,16.52,0,0,0,9.92-21.15l-18.38-50.77a16.51,16.51,0,0,0-15-10.88,16.37,16.37,0,0,0-4.56-.65H221a16.57,16.57,0,0,0-5,.75,16.51,16.51,0,0,0-14.12,12.34L188.56,268a16.52,16.52,0,0,0,12,20.07h0a16.45,16.45,0,0,0,7,.23V410.7a16.52,16.52,0,0,0,33,0V330.42h4.33l9.29,82A16.52,16.52,0,0,0,287,408.68Z"/></g><g class="cls-20"><polygon class="cls-4" points="101.52 445.27 86.34 445.27 86.34 430.48 75.2 430.48 75.2 469.85 86.34 469.85 86.34 454.49 101.52 454.49 101.52 469.85 112.66 469.85 112.66 430.48 101.52 430.48 101.52 445.27"/><polygon class="cls-4" points="130.75 454.04 148.24 454.04 148.24 445.72 130.75 445.72 130.75 439.08 150.6 439.08 150.6 430.48 119.72 430.48 119.72 469.85 151.33 469.85 151.33 461.24 130.75 461.24 130.75 454.04"/><polygon class="cls-4" points="168.65 430.48 157.52 430.48 157.52 469.85 187.44 469.85 187.44 461.02 168.65 461.02 168.65 430.48"/><path class="cls-4" d="M212.73,449.26a7.62,7.62,0,0,1-5.2,1.52h-6.19V439.25h6.19a7.67,7.67,0,0,1,5.2,1.52,5.39,5.39,0,0,1,1.72,4.27A5.32,5.32,0,0,1,212.73,449.26Zm4.78-17a22.75,22.75,0,0,0-9.31-1.74h-18v39.37h11.13V459.56h6.86a22.41,22.41,0,0,0,9.31-1.78A13.29,13.29,0,0,0,225.7,445a14.06,14.06,0,0,0-2.14-7.79A13.63,13.63,0,0,0,217.51,432.22Z"/><polygon class="cls-4" points="239.45 439.31 251.54 439.31 251.54 469.85 262.68 469.85 262.68 439.31 274.72 439.31 274.72 430.48 239.45 430.48 239.45 439.31"/><polygon class="cls-4" points="304.39 445.27 289.2 445.27 289.2 430.48 278.07 430.48 278.07 469.85 289.2 469.85 289.2 454.49 304.39 454.49 304.39 469.85 315.53 469.85 315.53 430.48 304.39 430.48 304.39 445.27"/><polygon class="cls-4" points="335.24 454.04 352.73 454.04 352.73 445.72 335.24 445.72 335.24 439.08 355.09 439.08 355.09 430.48 324.21 430.48 324.21 469.85 355.82 469.85 355.82 461.24 335.24 461.24 335.24 454.04"/><polygon class="cls-4" points="400.06 451.46 382.68 430.48 373.51 430.48 373.51 469.85 384.42 469.85 384.42 448.87 401.8 469.85 410.97 469.85 410.97 430.48 400.06 430.48 400.06 451.46"/><path class="cls-4" d="M452.15,431.32v-.25l.18.25Zm39.8-.84h-12l-7.74,11.38-7.89-11.38h-43v39.37h42.56l8-12.18L480,469.85h12.82l-14.6-20.35,13-18v7.82h12.09v30.54h11.14V439.31h12v-8.83Z"/><circle class="cls-4" cx="359.29" cy="185.41" r="29.13"/><path class="cls-4" d="M391.4,427.12h0a15.06,15.06,0,0,0,13.27-16.67l-8.91-78.67,14.81-7.12a2.81,2.81,0,0,0,1.31-3.74l-16.66-34.7a13,13,0,0,0,9.5-5.89L418,259.68a14.65,14.65,0,0,0-5.06-20l-21.66-11.13a13.2,13.2,0,0,0-4-1.29,9.8,9.8,0,0,0-6.73-2.67H354.27A89.51,89.51,0,0,1,326,220.16l-28.18-14.48a15.07,15.07,0,0,0-20.29,6.51h0a15.08,15.08,0,0,0,6.52,20.29l48.1,24.71v17.1L316.6,327.61a2.8,2.8,0,0,0,1.91,3.48l13.66,4v77.07a15.07,15.07,0,0,0,30.13,0V339.07h4l8.47,74.77A15.08,15.08,0,0,0,391.4,427.12Z"/><circle class="cls-4" cx="236.4" cy="161.95" r="31.93"/><path class="cls-4" d="M272.28,286.27a16.35,16.35,0,0,0,9.1-.6,16.52,16.52,0,0,0,9.91-21.15l-18.38-50.77a16.51,16.51,0,0,0-15-10.88,16.37,16.37,0,0,0-4.56-.65H220.14a16.48,16.48,0,0,0-4.95.75,16.52,16.52,0,0,0-14.13,12.34L187.71,268a16.52,16.52,0,0,0,11.95,20.07h0a16.49,16.49,0,0,0,7,.23V410.7a16.52,16.52,0,0,0,33,0V330.42H244l9.29,82a16.52,16.52,0,0,0,32.82-3.72Z"/></g><g class="cls-21"><polygon class="cls-4" points="100.62 445.27 85.43 445.27 85.43 430.48 74.3 430.48 74.3 469.85 85.43 469.85 85.43 454.49 100.62 454.49 100.62 469.85 111.75 469.85 111.75 430.48 100.62 430.48 100.62 445.27"/><polygon class="cls-4" points="129.8 454.04 147.29 454.04 147.29 445.72 129.8 445.72 129.8 439.08 149.65 439.08 149.65 430.48 118.77 430.48 118.77 469.85 150.38 469.85 150.38 461.24 129.8 461.24 129.8 454.04"/><polygon class="cls-4" points="167.7 430.48 156.57 430.48 156.57 469.85 186.49 469.85 186.49 461.02 167.7 461.02 167.7 430.48"/><path class="cls-4" d="M211.68,449.26c-1.14,1-2.87,1.52-5.2,1.52H200.3V439.25h6.18a7.65,7.65,0,0,1,5.2,1.52A5.39,5.39,0,0,1,213.4,445,5.32,5.32,0,0,1,211.68,449.26Zm4.79-17a22.78,22.78,0,0,0-9.31-1.74h-18v39.37H200.3V459.56h6.86a22.44,22.44,0,0,0,9.31-1.78,13.86,13.86,0,0,0,6-5,13.69,13.69,0,0,0,2.14-7.71,14,14,0,0,0-2.14-7.79A13.6,13.6,0,0,0,216.47,432.22Z"/><polygon class="cls-4" points="238.12 439.31 250.21 439.31 250.21 469.85 261.35 469.85 261.35 439.31 273.38 439.31 273.38 430.48 238.12 430.48 238.12 439.31"/><polygon class="cls-4" points="303.01 445.27 287.82 445.27 287.82 430.48 276.69 430.48 276.69 469.85 287.82 469.85 287.82 454.49 303.01 454.49 303.01 469.85 314.15 469.85 314.15 430.48 303.01 430.48 303.01 445.27"/><polygon class="cls-4" points="333.9 454.04 351.39 454.04 351.39 445.72 333.9 445.72 333.9 439.08 353.75 439.08 353.75 430.48 322.88 430.48 322.88 469.85 354.49 469.85 354.49 461.24 333.9 461.24 333.9 454.04"/><polygon class="cls-4" points="398.44 451.46 381.06 430.48 371.89 430.48 371.89 469.85 382.81 469.85 382.81 448.87 400.18 469.85 409.35 469.85 409.35 430.48 398.44 430.48 398.44 451.46"/><path class="cls-4" d="M450.68,431.32v-.25l.17.25Zm39.79-.84h-12l-7.74,11.38-7.9-11.38h-43v39.37h42.55l8-12.18,8.16,12.18h12.82l-14.6-20.35,13-18v7.82h12.09v30.54H513V439.31h12v-8.83Z"/><circle class="cls-4" cx="358.43" cy="185.41" r="29.13"/><path class="cls-4" d="M390.54,427.12h0a15.06,15.06,0,0,0,13.27-16.67l-8.91-78.67,14.81-7.12a2.79,2.79,0,0,0,1.31-3.74l-16.66-34.7a13,13,0,0,0,9.5-5.89l13.32-20.65a14.65,14.65,0,0,0-5.06-20l-21.66-11.13a13.2,13.2,0,0,0-4-1.29,9.8,9.8,0,0,0-6.72-2.67H353.41a89.56,89.56,0,0,1-28.25-4.42L297,205.68a15.06,15.06,0,0,0-20.28,6.51h0a15.07,15.07,0,0,0,6.51,20.29l48.11,24.71v17.1l-15.58,53.32a2.81,2.81,0,0,0,1.91,3.48l13.67,4v77.07a15.07,15.07,0,0,0,30.13,0V339.07h3.95l8.48,74.77A15.06,15.06,0,0,0,390.54,427.12Z"/><circle class="cls-4" cx="235.54" cy="161.95" r="31.93"/><path class="cls-4" d="M271.42,286.27a16.35,16.35,0,0,0,9.1-.6,16.51,16.51,0,0,0,9.91-21.15l-18.37-50.77a16.53,16.53,0,0,0-15-10.88,16.32,16.32,0,0,0-4.56-.65H219.28a16.53,16.53,0,0,0-4.95.75,16.52,16.52,0,0,0-14.13,12.34L186.85,268a16.52,16.52,0,0,0,12,20.07h0a16.49,16.49,0,0,0,7,.23V410.7a16.52,16.52,0,0,0,33,0V330.42h4.34l9.29,82a16.52,16.52,0,0,0,32.82-3.72Z"/></g><g class="cls-22"><polygon class="cls-4" points="99.71 445.27 84.53 445.27 84.53 430.48 73.39 430.48 73.39 469.85 84.53 469.85 84.53 454.49 99.71 454.49 99.71 469.85 110.85 469.85 110.85 430.48 99.71 430.48 99.71 445.27"/><polygon class="cls-4" points="128.84 454.04 146.33 454.04 146.33 445.72 128.84 445.72 128.84 439.08 148.7 439.08 148.7 430.48 117.82 430.48 117.82 469.85 149.43 469.85 149.43 461.24 128.84 461.24 128.84 454.04"/><polygon class="cls-4" points="166.75 430.48 155.61 430.48 155.61 469.85 185.53 469.85 185.53 461.02 166.75 461.02 166.75 430.48"/><path class="cls-4" d="M210.64,449.26a7.65,7.65,0,0,1-5.21,1.52h-6.18V439.25h6.18a7.7,7.7,0,0,1,5.21,1.52,5.42,5.42,0,0,1,1.71,4.27A5.35,5.35,0,0,1,210.64,449.26Zm4.78-17a22.78,22.78,0,0,0-9.31-1.74h-18v39.37h11.14V459.56h6.86a22.44,22.44,0,0,0,9.31-1.78,13.86,13.86,0,0,0,6-5A13.69,13.69,0,0,0,223.6,445a14,14,0,0,0-2.14-7.79A13.6,13.6,0,0,0,215.42,432.22Z"/><polygon class="cls-4" points="236.79 439.31 248.88 439.31 248.88 469.85 260.01 469.85 260.01 439.31 272.05 439.31 272.05 430.48 236.79 430.48 236.79 439.31"/><polygon class="cls-4" points="301.63 445.27 286.44 445.27 286.44 430.48 275.31 430.48 275.31 469.85 286.44 469.85 286.44 454.49 301.63 454.49 301.63 469.85 312.77 469.85 312.77 430.48 301.63 430.48 301.63 445.27"/><polygon class="cls-4" points="332.57 454.04 350.06 454.04 350.06 445.72 332.57 445.72 332.57 439.08 352.42 439.08 352.42 430.48 321.54 430.48 321.54 469.85 353.15 469.85 353.15 461.24 332.57 461.24 332.57 454.04"/><polygon class="cls-4" points="396.82 451.46 379.44 430.48 370.27 430.48 370.27 469.85 381.19 469.85 381.19 448.87 398.56 469.85 407.73 469.85 407.73 430.48 396.82 430.48 396.82 451.46"/><path class="cls-4" d="M449.2,431.32v-.25l.18.25Zm39.8-.84H477l-7.74,11.38-7.89-11.38h-43v39.37h42.56l8-12.18,8.16,12.18H489.9L475.29,449.5l13-18v7.82h12.09v30.54h11.13V439.31h12v-8.83Z"/><circle class="cls-4" cx="357.58" cy="185.41" r="29.13"/><path class="cls-4" d="M389.68,427.12h0A15.08,15.08,0,0,0,403,410.45L394,331.78l14.81-7.12a2.8,2.8,0,0,0,1.32-3.74l-16.67-34.7a13,13,0,0,0,9.51-5.89l13.31-20.65a14.65,14.65,0,0,0-5.06-20L389.6,228.54a13.12,13.12,0,0,0-4-1.29,9.8,9.8,0,0,0-6.72-2.67H352.56a89.51,89.51,0,0,1-28.25-4.42l-28.19-14.48a15.06,15.06,0,0,0-20.28,6.51h0a15.08,15.08,0,0,0,6.52,20.29l48.1,24.71v17.1l-15.57,53.32a2.79,2.79,0,0,0,1.9,3.48l13.67,4v77.07a15.07,15.07,0,0,0,30.13,0V339.07h4L373,413.84A15.07,15.07,0,0,0,389.68,427.12Z"/><circle class="cls-4" cx="234.68" cy="161.95" r="31.93"/><path class="cls-4" d="M270.56,286.27a16.49,16.49,0,0,0,19-21.75L271.2,213.75a16.51,16.51,0,0,0-15-10.88,16.37,16.37,0,0,0-4.56-.65H218.42a16.57,16.57,0,0,0-4.95.75,16.53,16.53,0,0,0-14.13,12.34L186,268a16.51,16.51,0,0,0,12,20.07h0a16.44,16.44,0,0,0,7,.23V410.7a16.52,16.52,0,0,0,33,0V330.42h4.33l9.29,82a16.52,16.52,0,0,0,32.83-3.72Z"/></g><g class="cls-23"><polygon class="cls-4" points="98.81 445.27 83.62 445.27 83.62 430.48 72.49 430.48 72.49 469.85 83.62 469.85 83.62 454.49 98.81 454.49 98.81 469.85 109.95 469.85 109.95 430.48 98.81 430.48 98.81 445.27"/><polygon class="cls-4" points="127.89 454.04 145.38 454.04 145.38 445.72 127.89 445.72 127.89 439.08 147.74 439.08 147.74 430.48 116.87 430.48 116.87 469.85 148.48 469.85 148.48 461.24 127.89 461.24 127.89 454.04"/><polygon class="cls-4" points="165.8 430.48 154.66 430.48 154.66 469.85 184.58 469.85 184.58 461.02 165.8 461.02 165.8 430.48"/><path class="cls-4" d="M209.59,449.26a7.62,7.62,0,0,1-5.2,1.52H198.2V439.25h6.19a7.67,7.67,0,0,1,5.2,1.52A5.42,5.42,0,0,1,211.3,445,5.35,5.35,0,0,1,209.59,449.26Zm4.78-17a22.78,22.78,0,0,0-9.31-1.74h-18v39.37H198.2V459.56h6.86a22.44,22.44,0,0,0,9.31-1.78A13.26,13.26,0,0,0,222.55,445a14.06,14.06,0,0,0-2.13-7.79A13.63,13.63,0,0,0,214.37,432.22Z"/><polygon class="cls-4" points="235.45 439.31 247.54 439.31 247.54 469.85 258.68 469.85 258.68 439.31 270.72 439.31 270.72 430.48 235.45 430.48 235.45 439.31"/><polygon class="cls-4" points="300.25 445.27 285.06 445.27 285.06 430.48 273.93 430.48 273.93 469.85 285.06 469.85 285.06 454.49 300.25 454.49 300.25 469.85 311.38 469.85 311.38 430.48 300.25 430.48 300.25 445.27"/><polygon class="cls-4" points="331.24 454.04 348.73 454.04 348.73 445.72 331.24 445.72 331.24 439.08 351.09 439.08 351.09 430.48 320.21 430.48 320.21 469.85 351.82 469.85 351.82 461.24 331.24 461.24 331.24 454.04"/><polygon class="cls-4" points="395.2 451.46 377.82 430.48 368.66 430.48 368.66 469.85 379.57 469.85 379.57 448.87 396.95 469.85 406.11 469.85 406.11 430.48 395.2 430.48 395.2 451.46"/><path class="cls-4" d="M447.72,431.32v-.25l.18.25Zm39.8-.84h-12l-7.74,11.38-7.89-11.38h-43v39.37H459.4l8-12.18,8.17,12.18h12.82l-14.6-20.35,13-18v7.82h12.09v30.54H510V439.31h12v-8.83Z"/><circle class="cls-4" cx="356.72" cy="185.41" r="29.13"/><path class="cls-4" d="M388.83,427.12h0a15.07,15.07,0,0,0,13.27-16.67l-8.92-78.67L408,324.66a2.8,2.8,0,0,0,1.32-3.74l-16.66-34.7a13,13,0,0,0,9.5-5.89l13.31-20.65a14.63,14.63,0,0,0-5-20l-21.67-11.13a13,13,0,0,0-4-1.29,9.76,9.76,0,0,0-6.72-2.67H351.7a89.51,89.51,0,0,1-28.25-4.42l-28.18-14.48A15.07,15.07,0,0,0,275,212.19h0a15.08,15.08,0,0,0,6.52,20.29l48.1,24.71v17.1L314,327.61a2.8,2.8,0,0,0,1.91,3.48l13.66,4v77.07a15.07,15.07,0,0,0,30.13,0V339.07h4l8.47,74.77A15.08,15.08,0,0,0,388.83,427.12Z"/><circle class="cls-4" cx="233.83" cy="161.95" r="31.93"/><path class="cls-4" d="M269.71,286.27a16.35,16.35,0,0,0,9.1-.6,16.52,16.52,0,0,0,9.91-21.15l-18.38-50.77a16.51,16.51,0,0,0-15-10.88,16.37,16.37,0,0,0-4.56-.65H217.57a16.48,16.48,0,0,0-4.95.75,16.52,16.52,0,0,0-14.13,12.34L185.13,268a16.52,16.52,0,0,0,12,20.07h0a16.49,16.49,0,0,0,7,.23V410.7a16.52,16.52,0,0,0,33,0V330.42h4.34l9.29,82a16.52,16.52,0,0,0,32.82-3.72Z"/></g><polygon class="cls-4" points="97.9 445.27 82.72 445.27 82.72 430.48 71.58 430.48 71.58 469.85 82.72 469.85 82.72 454.49 97.9 454.49 97.9 469.85 109.04 469.85 109.04 430.48 97.9 430.48 97.9 445.27"/><polygon class="cls-4" points="126.94 454.04 144.43 454.04 144.43 445.72 126.94 445.72 126.94 439.08 146.79 439.08 146.79 430.48 115.92 430.48 115.92 469.85 147.52 469.85 147.52 461.24 126.94 461.24 126.94 454.04"/><polygon class="cls-4" points="164.84 430.48 153.71 430.48 153.71 469.85 183.63 469.85 183.63 461.02 164.84 461.02 164.84 430.48"/><path class="cls-4" d="M208.54,449.26a7.62,7.62,0,0,1-5.2,1.52h-6.19V439.25h6.19a7.67,7.67,0,0,1,5.2,1.52,5.42,5.42,0,0,1,1.72,4.27A5.36,5.36,0,0,1,208.54,449.26Zm4.78-17a22.75,22.75,0,0,0-9.31-1.74H186v39.37h11.13V459.56H204a22.41,22.41,0,0,0,9.31-1.78A13.26,13.26,0,0,0,221.5,445a14.06,14.06,0,0,0-2.13-7.79A13.63,13.63,0,0,0,213.32,432.22Z"/><polygon class="cls-4" points="234.12 439.31 246.21 439.31 246.21 469.85 257.35 469.85 257.35 439.31 269.38 439.31 269.38 430.48 234.12 430.48 234.12 439.31"/><polygon class="cls-4" points="298.87 445.27 283.68 445.27 283.68 430.48 272.55 430.48 272.55 469.85 283.68 469.85 283.68 454.49 298.87 454.49 298.87 469.85 310 469.85 310 430.48 298.87 430.48 298.87 445.27"/><polygon class="cls-4" points="329.9 454.04 347.39 454.04 347.39 445.72 329.9 445.72 329.9 439.08 349.75 439.08 349.75 430.48 318.88 430.48 318.88 469.85 350.49 469.85 350.49 461.24 329.9 461.24 329.9 454.04"/><polygon class="cls-4" points="393.58 451.46 376.2 430.48 367.04 430.48 367.04 469.85 377.95 469.85 377.95 448.87 395.33 469.85 404.5 469.85 404.5 430.48 393.58 430.48 393.58 451.46"/><path class="cls-4" d="M446.25,431.32v-.25l.17.25Zm39.79-.84H474l-7.74,11.38-7.9-11.38h-43v39.37h42.55l8-12.18,8.16,12.18h12.82l-14.6-20.35,13-18v7.82h12.1v30.54h11.13V439.31h12v-8.83Z"/><circle class="cls-4" cx="355.86" cy="185.41" r="29.13"/><path class="cls-4" d="M388,427.12h0a15.06,15.06,0,0,0,13.27-16.67l-8.91-78.67,14.81-7.12a2.8,2.8,0,0,0,1.31-3.74l-16.66-34.7a13,13,0,0,0,9.5-5.89l13.32-20.65a14.65,14.65,0,0,0-5.06-20l-21.66-11.13a13.2,13.2,0,0,0-4-1.29,9.8,9.8,0,0,0-6.72-2.67H350.84a89.51,89.51,0,0,1-28.25-4.42l-28.18-14.48a15.06,15.06,0,0,0-20.28,6.51h0a15.06,15.06,0,0,0,6.51,20.29l48.11,24.71v17.1l-15.58,53.32a2.81,2.81,0,0,0,1.91,3.48l13.67,4v77.07a15.07,15.07,0,0,0,30.13,0V339.07h3.95l8.47,74.77A15.08,15.08,0,0,0,388,427.12Z"/><circle class="cls-4" cx="232.97" cy="161.95" r="31.93"/><path class="cls-4" d="M268.85,286.27a16.35,16.35,0,0,0,9.1-.6,16.51,16.51,0,0,0,9.91-21.15l-18.37-50.77a16.54,16.54,0,0,0-15-10.88,16.32,16.32,0,0,0-4.56-.65H216.71a16.48,16.48,0,0,0-5,.75,16.52,16.52,0,0,0-14.13,12.34L184.28,268a16.52,16.52,0,0,0,11.95,20.07h0a16.49,16.49,0,0,0,7,.23V410.7a16.52,16.52,0,0,0,33,0V330.42h4.34l9.29,82a16.52,16.52,0,0,0,32.82-3.72Z"/><path class="cls-24" d="M454.29,445.38v-11.8a2.26,2.26,0,0,0-2.26-2.26H414.36a2.26,2.26,0,0,0-2.26,2.26v33.64a2.26,2.26,0,0,0,2.26,2.26H452a2.26,2.26,0,0,0,2.26-2.26V453.41a4,4,0,0,0,0-8Z"/><text class="cls-25" transform="translate(68.65 469.85)">HELP THE NE</text><text class="cls-25" transform="translate(444.32 469.85)">XT</text><circle class="cls-26" cx="355.86" cy="185.41" r="29.13"/><path class="cls-24" d="M401.29,280.33l13.32-20.65a14.65,14.65,0,0,0-5.06-20l-21.66-11.13a13.2,13.2,0,0,0-4-1.29,9.8,9.8,0,0,0-6.72-2.67H350.84a89.51,89.51,0,0,1-28.25-4.42l-28.18-14.48a15.06,15.06,0,0,0-20.28,6.51h0a15.06,15.06,0,0,0,6.51,20.29l48.11,24.71v17.1l-15.58,53.32a2.81,2.81,0,0,0,1.91,3.48l13.67,4v77.07a15.07,15.07,0,0,0,30.13,0V339.07h3.95l8.47,74.77A15.08,15.08,0,0,0,388,427.12h0a15.06,15.06,0,0,0,13.27-16.67l-8.91-78.67,14.81-7.12a2.8,2.8,0,0,0,1.31-3.74l-16.66-34.7A13,13,0,0,0,401.29,280.33Z"/><circle class="cls-24" cx="232.97" cy="161.95" r="31.93"/><path class="cls-26" d="M278,285.67a16.51,16.51,0,0,0,9.91-21.15l-18.37-50.77a16.54,16.54,0,0,0-15-10.88,16.32,16.32,0,0,0-4.56-.65H216.71a16.48,16.48,0,0,0-5,.75,16.52,16.52,0,0,0-14.13,12.34L184.28,268a16.52,16.52,0,0,0,11.95,20.07h0a16.49,16.49,0,0,0,7,.23V410.7a16.52,16.52,0,0,0,33,0V330.42h4.34l9.29,82a16.52,16.52,0,0,0,32.82-3.72L268.85,286.27A16.35,16.35,0,0,0,278,285.67Z"/><text class="cls-27" transform="translate(69.85 424.94)">LETS</text></svg>